<svg xmlns="http://www.w3.org/2000/svg" xml:space="preserve" id="Layer_1" x="0" y="0" viewBox="0 0 512.001 512.001"><path d="M238.892 191.856h239.437c14.168 0 25.654 11.485 25.654 25.654v153.924c0 14.168-11.485 25.654-25.654 25.654H341.508v28.204c0 5.37-6.493 8.06-10.289 4.262l-32.467-32.467h-59.859c-14.168 0-25.654-11.485-25.654-25.654V217.509c-.001-14.167 11.485-25.653 25.653-25.653" style="fill:#c3e678"/><path d="M213.238 217.51v153.924c0 4.893 1.443 9.42 3.82 13.311 62.891-25.271 107.347-86.717 107.347-158.644 0-11.729-1.192-23.179-3.441-34.245h-82.072c-14.168 0-25.654 11.486-25.654 25.654" style="fill:#a5d76e"/><path d="M298.751 226.061c0-80.287-65.085-145.372-145.372-145.372S8.007 145.774 8.007 226.061c0 70.326 49.942 128.979 116.292 142.452l43.785 43.785c4.04 4.04 10.949 1.179 10.949-4.535v-38.727c68.03-12.134 119.718-71.456 119.718-142.975" style="fill:#ff6464"/><circle cx="153.378" cy="226.097" r="111.167" style="fill:#d2555a"/><path d="M478.329 183.82H300.803c-7.9-27.511-23.412-52.593-45.133-72.042-32.921-29.481-75.446-43.016-119.749-38.119C64.871 81.518 8.048 138.871.809 210.032c-3.953 38.846 6.67 77.251 29.909 108.14 22.271 29.6 54.229 50.063 90.203 57.816l37.845 37.844a16.51 16.51 0 0 0 18.056 3.59 16.52 16.52 0 0 0 10.227-15.307V375.62a154 154 0 0 0 18.172-5.257v1.05c0 18.566 15.105 33.671 33.671 33.671h56.539l30.119 30.119a14 14 0 0 0 15.305 3.045 14 14 0 0 0 8.67-12.976v-20.188H478.33c18.566 0 33.671-15.105 33.671-33.671V217.489c-.001-18.565-15.106-33.669-33.672-33.669M177.625 361.164a8.015 8.015 0 0 0-6.609 7.892v33.06c0 .191 0 .357-.33.494-.33.135-.446.019-.583-.115l-39.539-39.539a8 8 0 0 0-4.106-2.194c-33.084-6.575-62.535-25.124-82.928-52.229-20.805-27.654-30.313-62.059-26.771-96.878 3.121-30.685 17.014-59.873 39.119-82.19 22.109-22.32 51.16-36.479 81.805-39.868q7.999-.884 15.885-.882c33.893 0 65.884 12.154 91.405 35.007 29.082 26.042 45.761 63.35 45.761 102.359.001 66.582-47.568 123.392-113.109 135.083m318.341 10.25c0 9.725-7.912 17.637-17.637 17.637H341.508a8.017 8.017 0 0 0-8.017 8.017v23.403L304.42 391.4a8 8 0 0 0-5.668-2.348h-59.859c-9.725 0-17.637-7.912-17.637-17.637v-7.818c51.32-25.224 85.513-77.856 85.513-137.515 0-8.852-.781-17.622-2.28-26.228H478.33c9.725 0 17.637 7.912 17.637 17.637z"/><path d="m438.455 246.027-79.845 79.845-37.069-37.069a8.016 8.016 0 0 0-11.337 0 8.016 8.016 0 0 0 0 11.337l42.737 42.737a8 8 0 0 0 5.668 2.348 8 8 0 0 0 5.668-2.348l85.513-85.513a8.016 8.016 0 0 0 0-11.337 8.013 8.013 0 0 0-11.335 0m-285.07 40.437h-.011a8.026 8.026 0 0 0-8.022 8.022v.01a8.026 8.026 0 0 0 8.022 8.022h.011a8.026 8.026 0 0 0 8.022-8.022v-.01a8.026 8.026 0 0 0-8.022-8.022m-.01-136.81c-27.994.002-50.769 22.78-50.769 50.773a8.017 8.017 0 0 0 16.034 0c0-19.154 15.583-34.739 34.736-34.74 9.039 0 17.697 3.679 24.38 10.362s10.363 15.342 10.363 24.381c-.001 15.227-10.176 28.911-24.742 33.278-10.776 3.231-18.014 12.886-18.014 24.024v2.554a8.017 8.017 0 0 0 16.034 0v-2.554c0-4.002 2.647-7.485 6.587-8.666 21.295-6.386 36.169-26.385 36.17-48.636.001-13.322-5.347-26.008-15.059-35.719-9.713-9.71-22.398-15.058-35.72-15.057"/></svg>