<svg xmlns="http://www.w3.org/2000/svg" xml:space="preserve" id="Layer_1" x="0" y="0" viewBox="0 0 475.2 475.2"><path d="M232 86v16.8h39.2V86zm39.2 76H216v16.8h55.2zm-74.4 0H83.2v16.8H196V162zM136 141.2v-16.8H83.2v16.8zm-52.8-38.4h130.4V86H83.2zm72 38.4h116v-16.8h-116zm131.2-61.6v116.8c0 4.8-4 8.8-8.8 8.8h-132c-5.6 0-10.4 2.4-13.6 7.2l-9.6 13.6c-4 4.8-11.2 4.8-14.4 0l-6.4-8.8C96.8 210 88.8 206 80.8 206c-4.8 0-8.8-4-8.8-8.8V75.6c0-4.8 4-8.8 8.8-8.8h192.8c7.2 0 12.8 5.6 12.8 12.8" style="fill:#f90"/><path d="M388.8 402.8c-24.8 0-44.8-20-44.8-44.8s20-44.8 44.8-44.8 44.8 20 44.8 44.8-20 44.8-44.8 44.8" style="fill:#e94545"/><path d="M303.2 41.2h-136V22h222.4v156h-12c-3.2 0-6.4 2.4-8 5.6l-6.4 17.6-8-19.2c-.8-3.2-4-5.6-8-5.6h-36V50c0-4.8-4-8.8-8-8.8" style="fill:#2fb4c2"/><path d="M388.8 419.6c-21.6 0-40.8-11.2-52-28-11.2 11.2-17.6 26.4-17.6 43.2v18.4h139.2v-18.4c0-8.8-1.6-16.8-4.8-24.8-1.6-3.2-.8-6.4 1.6-8.8 4-4 11.2-3.2 13.6 2.4 4 9.6 6.4 20 6.4 31.2V462c0 4.8-4 8.8-8.8 8.8h-156c-4.8 0-8.8-4-8.8-8.8v-27.2c0-24 10.4-44.8 27.2-59.2-1.6-5.6-2.4-11.2-2.4-17.6 0-34.4 28-62.4 62.4-62.4s62.4 28 62.4 62.4c-.8 34.4-28 61.6-62.4 61.6M343.2 358c0 24.8 20 44.8 44.8 44.8s44.8-20 44.8-44.8-20-44.8-44.8-44.8-44.8 20-44.8 44.8m-48.8-253.6c0-4.8 4-8.8 8.8-8.8s8.8 4 8.8 8.8v16.8c0 4.8-4 8.8-8.8 8.8s-8.8-4-8.8-8.8zm16.8-28v-1.6zm0 73.6v2.4zm-16.8 0v1.6zm0-72.8v-2.4zq0-1.2 0 0M216 162h55.2v16.8H216zm-60.8-37.6h116v16.8h-116zM232 86h39.2v16.8H232zM83.2 86h130.4v16.8H83.2zm0 76H196v16.8H83.2zm0-37.6h52v16.8h-52z" style="fill:#42210b"/><path d="M42.4 358c0-24.8 20-44.8 44.8-44.8s44.8 20 44.8 44.8-20 44.8-44.8 44.8-44.8-20-44.8-44.8" style="fill:#e94545"/><path d="M359.2 374c0 8 2.4 16 6.4 23.2 6.4 4 14.4 6.4 23.2 6.4 24.8 0 44.8-20 44.8-44.8 0-8-2.4-16-6.4-23.2-6.4-4-14.4-6.4-23.2-6.4-24.8-.8-44.8 20-44.8 44.8m-300.8 0c0 8 2.4 16 6.4 23.2 6.4 4 14.4 6.4 23.2 6.4 24.8 0 44.8-20 44.8-44.8 0-8-2.4-16-6.4-23.2-6.4-4-14.4-6.4-23.2-6.4-24.8-.8-44.8 20-44.8 44.8" style="fill:#ee5656"/><path d="M108 226c3.2 4.8 11.2 4.8 14.4 0l9.6-13.6c3.2-4 8-7.2 13.6-7.2h131.2c4.8 0 8.8-4 8.8-8.8V79.6c0-7.2-5.6-12.8-12.8-12.8h-192c-4.8 0-8.8 4-8.8 8.8v120.8c0 4.8 4 8.8 8.8 8.8 8.8 0 16 4 20.8 11.2zm186.4-104v92H145.6c-2.4 0-5.6 1.6-7.2 3.2l-24 32.8L92 217.2c-1.6-2.4-4-4-7.2-4H63.2V58.8h230.4V122z" style="fill:#ff7d00"/><path d="M46.4 222V50c0-4.8 4-8.8 8.8-8.8h94.4v-28c0-4.8 4-8.8 8.8-8.8h239.2c4.8 0 8.8 4 8.8 8.8V186c0 4.8-4 8.8-8.8 8.8h-15.2l-12.8 34.4c-.8 3.2-4 5.6-8 5.6s-6.4-2.4-8-5.6l-12-36h-30.4V222c0 4.8-4 8.8-8.8 8.8h-152L121.6 270c-1.6 2.4-4 3.2-7.2 3.2s-5.6-1.6-7.2-4l-26.4-38.4H55.2c-4.8 0-8.8-4-8.8-8.8m248-70.4v-2.4c.8-4 4-6.4 8-6.4s7.2 2.4 8 6.4v26.4h36.8c4 0 7.2 2.4 8 5.6l6.4 19.2 6.4-17.6c1.6-3.2 4-5.6 8-5.6h12V22H167.2v20h136c4.8 0 8.8 4 8.8 8.8V78c-.8 4-4 6.4-8 6.4s-7.2-2.4-8-6.4V59.6H64v155.2h21.6c3.2 0 5.6 1.6 7.2 4l22.4 32.8 24-32.8c1.6-2.4 4-3.2 7.2-3.2h148zm-259.2 240C24 402.8 17.6 418 17.6 434.8v18.4h139.2v-18.4c0-8-1.6-15.2-4-21.6-.8-3.2-.8-6.4 1.6-8.8 0 0 .8 0 .8-.8 4-4 11.2-2.4 13.6 3.2 3.2 8.8 5.6 18.4 5.6 28V462c0 4.8-4 8.8-8.8 8.8H8.8c-4.8 0-8.8-4-8.8-8.8v-27.2c0-24 10.4-44.8 27.2-59.2-1.6-5.6-2.4-11.2-2.4-17.6 0-34.4 28-62.4 62.4-62.4s62.4 28 62.4 62.4-28 62.4-62.4 62.4c-21.6-.8-40.8-12-52-28.8m7.2-33.6c0 24.8 20 44.8 44.8 44.8s44.8-20 44.8-44.8-20-44.8-44.8-44.8-44.8 20-44.8 44.8" style="fill:#42210b"/><path d="M167.2 22v4.8l205.6 4c8 0 14.4 6.4 14.4 14.4l1.6 125.6V22z" style="fill:#1d9aae"/></svg>