<svg xmlns="http://www.w3.org/2000/svg" width="800" height="800" viewBox="0 0 1024 1024"><path fill="#27323a" d="M766.88 519.521V353.55c0-142.993-114.522-258.152-255.344-258.152-140.76 0-255.344 115.159-255.344 256.684v166.1c-37.024 34.792-56.687 83.945-56.687 147.909 0 162.08 118.225 262.75 308.517 262.75 192.405 0 311.904-101.373 311.904-264.665 0-63.26-17.936-110.308-53.046-144.654M628.56 350.963V512.12H392.77V349.846c.143-31.615 12.35-60.723 34.55-82.634 22.28-22.056 51.993-34.185 83.53-34.185 31.616 0 61.234 12.129 83.514 34.185 22.134 21.91 34.341 51.02 34.341 81.981z"/><path fill="#f4ce73" d="M720.74 540.047c-29.108-14.3-69.754-16.724-69.754-16.724s-268.686.013-313.083.013c-11.364 0-23.383 6.194-35.047 14.907-1.562 3.383-3.847 6.432-6.831 8.858-31.981 25.406-47.493 64.41-47.493 118.99 0 192.914 181.484 213.723 259.491 213.723 164.636 0 262.878-80.562 262.878-215.639 0-53.367-14.49-91.476-44.238-116.372-2.536-2.154-4.436-4.87-5.922-7.756"/><path fill="#79ccbf" d="M638.57 526.418c37.28 0 72.388 6.832 87.262 20.3-4.915-4.677-7.978-10.999-7.978-17.813 0 0-.065-174.973 0-176.824 0-114.521-92.564-207.658-206.318-207.658-113.757 0-206.318 93.137-206.318 209.126v174.337c0 7.468-3.383 14.492-9.194 19.215 14.62-13.74 50.127-20.683 87.776-20.683zm-245.8-176.572c.143-31.615 12.35-60.723 34.55-82.634 22.28-22.056 51.993-34.185 83.53-34.185 31.616 0 61.234 12.129 83.514 34.185 22.134 21.91 34.342 51.02 34.342 81.981l-.144 1.771V512.12H392.77z"/><path fill="#27323a" d="M606.268 257.795c-25.486-25.2-59.367-39.067-95.434-39.067s-69.951 13.867-95.435 39.067c-25.568 25.28-39.642 58.825-39.642 94.493l-.127 165.96c0 4.5 3.67 8.17 8.17 8.17h253.746c4.5 0 8.17-3.67 8.17-8.17l.128-165.973c0-35.685-14.057-69.232-39.576-94.48m6.781 235.939H408.33l.112-141.414c0-26.89 10.63-52.203 29.939-71.287 19.325-19.104 45.052-29.621 72.454-29.621s53.128 10.517 72.454 29.621c19.26 19.054 29.873 44.366 29.873 71.242zM435.827 653.706c0 21.64 10.914 40.473 27.065 54.39v69.198c0 18.064 14.62 32.364 32.43 32.364h28.726c17.875 0 32.364-14.492 32.364-32.364v-69.137c16.214-13.98 27.131-32.811 27.131-54.451 0-40.727-33.132-73.86-73.859-73.86s-73.857 33.133-73.857 73.86"/><path fill="#fff" d="m495.322 776.974.255-83.69-7.66-4.785c-12.13-7.66-19.406-20.685-19.406-34.792 0-22.663 18.512-41.176 41.173-41.176 22.725 0 41.176 18.512 41.176 41.176 0 14.106-7.28 27.13-19.47 34.792l-7.661 4.785v84.01z"/></svg>