<svg xmlns="http://www.w3.org/2000/svg" width="800" height="800" viewBox="0 0 100 100"><path d="M84 31s-28 16-67 1l5 53s4 11 27 11c26 0 30-11 30-11z" style="fill:#ddd"/><path d="M80 63C70 53 67 81 53 73c-4-4-1-10-7-10s-12 3-14 8c-4-9-10-13-10-13l1 27s3 10 26 10c26 0 29-10 29-10z" style="fill:#762f00;stroke:#200c00"/><path d="M84 31s-28 16-67 1l5 53s4 11 27 11c26 0 30-11 30-11zm-57 9h1c4 1 4 5 4 5l4 37s0 4-3 3-3-5-3-5l-4-36s-1-4 1-4zm46 0c3 0 2 4 2 4l-4 36s-1 5-4 5-2-4-2-4l4-36s1-5 4-5zm-23 4c4 0 4 3 4 3v38s-1 3-4 3-4-3-4-3V47s0-3 4-3z" style="fill:#888;stroke:#444;stroke-width:2"/><ellipse cx="50" cy="23" rx="42" ry="17" style="fill:#555"/><ellipse cx="50" cy="19" rx="42" ry="17" style="fill:#aaa"/><ellipse cx="50" cy="18" rx="37" ry="13" style="fill:#333"/><ellipse cx="50" cy="20" rx="37" ry="12" style="fill:#666"/><path d="M32 19C32 2 50 2 50 2s18 0 18 17h-5S64 6.9 50 6.9C37 6.9 37 19 37 19z" style="fill:#aaa;stroke:#333;stroke-width:1"/></svg>