<?xml version="1.0" encoding="iso-8859-1"?>
<!-- Generator: Adobe Illustrator 19.0.0, SVG Export Plug-In . SVG Version: 6.00 Build 0)  -->
<!-- License: CC0. Made by SVG Repo: https://www.svgrepo.com/svg/206173/watering-can -->
<svg version="1.1" id="Layer_1" xmlns="http://www.w3.org/2000/svg" xmlns:xlink="http://www.w3.org/1999/xlink" x="0px" y="0px"
	 viewBox="0 0 512.302 512.302" style="enable-background:new 0 0 512.302 512.302;" xml:space="preserve">
<g>
	<path style="fill:#81C784;" d="M337.167,432.712H234.149c-28.354-0.415-48.772-20.824-48.772-46.009V87.854l0,0
		c60.698,12.12,127.629,11.882,194.207,0l0,0v298.849C379.584,411.888,359.174,432.298,337.167,432.712"/>
	<path style="fill:#FEC24C;" d="M270.837,248.153L270.837,248.153c-2.242-5.076-7.512-8.121-13.021-7.521
		c-11.008,1.201-18.185-11.246-11.652-20.171c3.275-4.476,3.275-10.567,0-15.042c-6.532-8.925,0.644-21.372,11.652-20.171
		c5.508,0.6,10.778-2.445,13.021-7.521c4.467-10.125,18.829-10.125,23.296,0c2.242,5.076,7.503,8.121,13.021,7.521
		c10.999-1.201,18.185,11.246,11.652,20.171c-3.284,4.476-3.284,10.567,0,15.042c6.532,8.925-0.653,21.372-11.652,20.171
		c-5.517-0.6-10.778,2.445-13.021,7.521C289.666,258.278,275.303,258.278,270.837,248.153"/>
	<path style="fill:#81C784;" d="M73.674,128.29L48.71,153.255l-42.699-14.23c-6.197-2.066-8.051-9.922-3.434-14.548l42.319-42.311
		c4.617-4.617,12.482-2.763,14.548,3.434L73.674,128.29z"/>
	<g>
		<polygon style="fill:#4CAF50;" points="185.381,239.861 73.677,128.289 48.704,153.262 185.381,289.675 		"/>
		<path style="fill:#4CAF50;" d="M379.588,264.574c-0.274-0.23,179.032-143.722,0-97.103v-36.052
			c298.567-55.049,0.079,186.368,0,186.121V264.574z"/>
	</g>
	<path style="fill:#FFFFFF;" d="M291.312,212.777c0,4.873-3.955,8.828-8.828,8.828c-4.873,0-8.828-3.955-8.828-8.828
		c0-4.873,3.955-8.828,8.828-8.828C287.357,203.949,291.312,207.904,291.312,212.777"/>
	<g>
		<path style="fill:#4CAF50;" d="M211.864,344.026c4.882,0,8.828-3.946,8.828-8.828s-3.946-8.828-8.828-8.828h-26.483v17.655
			H211.864z"/>
		<path style="fill:#4CAF50;" d="M229.519,379.336c4.882,0,8.828-3.946,8.828-8.828c0-4.882-3.946-8.828-8.828-8.828h-44.138v17.655
			H229.519z"/>
	</g>
</g>
</svg>
