<svg xmlns="http://www.w3.org/2000/svg" xml:space="preserve" id="Layer_1" x="0" y="0" viewBox="0 0 512 512"><path d="M500.87 183.352v202.574c0 20.447-16.584 37.031-37.031 37.031H48.15c-20.447 0-37.02-16.584-37.02-37.031V183.352c0-1.692.045-3.384.134-5.053h70.122c22.673 0 41.049 18.376 41.049 41.038v58.19c0 22.662 18.365 41.038 41.038 41.038h185.043c22.673 0 41.049-18.376 41.049-41.038v-58.19c0-22.662 18.365-41.038 41.038-41.038h70.133c.089 1.669.134 3.361.134 5.053" style="fill:#39b54a"/><path d="M389.565 231.836v45.69c0 22.662-18.376 41.038-41.049 41.038H163.473c-22.673 0-41.038-18.376-41.038-41.038v-45.69c83.823-30.486 183.296-30.486 267.13 0" style="fill:#fac51c"/><path d="M500.736 178.298h-70.133c-22.673 0-41.038 18.376-41.038 41.038v12.499c-83.834-30.486-183.307-30.486-267.13 0v-12.499c0-22.662-18.376-41.038-41.049-41.038H11.264c2.627-49.742 43.776-89.255 94.175-89.255H406.55c50.399 0 91.559 39.514 94.186 89.255" style="fill:#efefef"/><path d="M511.852 177.713c-2.956-55.963-49.21-99.8-105.303-99.8h-301.11C49.353 77.913 3.105 121.75.15 177.712v.008C.05 179.573 0 385.924 0 385.924c0 26.557 21.6 48.163 48.15 48.163h415.688c26.555 0 48.161-21.605 48.161-48.163.001 0-.049-206.348-.147-208.211m-406.413-77.539H406.55c40.251 0 74.081 28.605 81.622 66.994h-22.896c-7.171-26.269-30.92-44.737-58.721-44.737h-51.778c-6.146 0-11.13 4.984-11.13 11.13s4.984 11.13 11.13 11.13h51.778c15.475 0 28.975 9.013 35.129 22.476h-11.08c-27.759 0-50.526 21.792-52.084 49.169-38.905-12.281-80.717-18.423-122.523-18.423-41.807 0-83.614 6.141-122.516 18.422-1.558-27.376-24.328-49.168-52.094-49.168h-11.08c6.154-13.462 19.654-22.476 35.13-22.476h155.29c6.146 0 11.13-4.984 11.13-11.13s-4.984-11.13-11.13-11.13h-155.29c-27.802 0-51.551 18.468-58.721 44.737H23.829c7.54-38.389 41.364-66.994 81.61-66.994m58.034 207.26c-16.491 0-29.907-13.417-29.907-29.907V239.73c77.252-26.124 167.61-26.124 244.87 0v37.797c0 16.491-13.422 29.907-29.919 29.907zm326.266 78.49c0 14.281-11.619 25.902-25.901 25.902H48.15c-14.276 0-25.889-11.62-25.889-25.902v-7.535h66.221c6.147 0 11.13-4.984 11.13-11.13s-4.983-11.13-11.13-11.13H22.261v-166.7h59.125c16.498 0 29.919 13.417 29.919 29.906v58.19c0 28.767 23.403 52.168 52.168 52.168h273.546c6.146 0 11.13-4.984 11.13-11.13s-4.984-11.13-11.13-11.13H391.23c5.955-8.476 9.464-18.786 9.464-29.907v-58.19c0-16.49 13.417-29.906 29.907-29.906h59.137z" style="fill:#231f20"/><path d="M305.665 144.692h1.113c6.146 0 11.13-4.984 11.13-11.13s-4.984-11.13-11.13-11.13h-1.113c-6.146 0-11.13 4.984-11.13 11.13s4.983 11.13 11.13 11.13M134.673 356.129h-1.113c-6.147 0-11.13 4.984-11.13 11.13s4.983 11.13 11.13 11.13h1.113c6.147 0 11.13-4.984 11.13-11.13s-4.983-11.13-11.13-11.13" style="fill:#231f20"/></svg>