<svg xmlns="http://www.w3.org/2000/svg" xml:space="preserve" id="Layer_1" x="0" y="0" viewBox="0 0 497.6 497.6"><circle cx="248.8" cy="213.6" r="213.6" style="fill:#f2ad51"/><path d="M400 364.8c-83.2 83.2-219.2 83.2-302.4 0s-83.2-219.2 0-302.4" style="fill:#ffc166"/><path d="M496.8 497.6c-36.8-78.4-142.4-55.2-248-55.2S37.6 419.2.8 497.6z" style="fill:#6cad27"/><path d="M446.4 497.6c-31.2-78.4-108-134.4-197.6-134.4s-166.4 56-197.6 134.4z" style="fill:#a0e252"/><path d="M446.4 497.6c-31.2-78.4-108-110.4-197.6-110.4s-166.4 32-197.6 110.4z" style="fill:#7dc431"/><path d="M313.6 497.6H184l31.2-77.6h67.2z" style="fill:#6faf25"/><path d="m151.2 313.6-24-24.8-42.4 42.4 42.4 42.4 24-24z" style="fill:#d65483"/><path d="M65.663 301.404h59.999v59.999H65.663z" style="fill:#d65483" transform="rotate(134.984 95.663 331.403)"/><path d="m64 288.8-24.8 24.8v35.2L64 373.6l42.4-42.4z" style="fill:#d65483"/><path d="M88.8 373.6h13.6v101.6H88.8z" style="fill:#028952"/><path d="M88.8 373.6h12.8v101.6" style="fill:#036d3f"/><path id="SVGCleanerId_0" d="m140.8 322.4-15.2-15.2-15.2 15.2-15.2-15.2L80 322.4l-15.2-15.2-15.2 15.2L39.2 312v35.2c0 29.6 24 53.6 53.6 53.6h4.8c29.6 0 53.6-24 53.6-53.6V312z" style="fill:#ea7d9f"/><path id="SVGCleanerId_0_1_" d="m140.8 322.4-15.2-15.2-15.2 15.2-15.2-15.2L80 322.4l-15.2-15.2-15.2 15.2L39.2 312v35.2c0 29.6 24 53.6 53.6 53.6h4.8c29.6 0 53.6-24 53.6-53.6V312z" style="fill:#ea7d9f"/><path d="M113.937 311.78h16v5.6h-16z" style="fill:#f4aec7" transform="rotate(-45.04 121.937 314.58)"/><path d="M83.234 311.917h16v5.6h-16z" style="fill:#f4aec7" transform="rotate(-45.04 91.234 314.717)"/><path d="m148.8 322.4 2.4-2.4v-8l-6.4 6.4zM47.2 347.2V320l-8-8v35.2c0 29.6 24 53.6 53.6 53.6h6.4c-28.8-.8-52-24.8-52-53.6" style="fill:#f4aec7"/><path d="M53.111 311.517h16v5.6h-16z" style="fill:#f4aec7" transform="rotate(-45 61.111 314.317)"/><path d="m458.4 313.6-24.8-24.8-42.4 42.4 42.4 42.4 24.8-24z" style="fill:#d65483"/><path d="M372.814 301.3h59.999v59.999h-59.999z" style="fill:#d65483" transform="rotate(134.992 402.813 331.3)"/><path d="m371.2 288.8-24.8 24.8v35.2l24.8 24.8 42.4-42.4z" style="fill:#d65483"/><path d="M396 373.6h13.6v101.6H396z" style="fill:#028952"/><path d="M396 373.6h12.8v101.6" style="fill:#036d3f"/><path id="SVGCleanerId_1" d="m448 322.4-15.2-15.2-15.2 15.2-15.2-15.2-15.2 15.2-15.2-15.2-15.2 15.2-10.4-10.4v35.2c0 29.6 24 53.6 53.6 53.6h4.8c29.6 0 53.6-24 53.6-53.6V312z" style="fill:#ea7d9f"/><path id="SVGCleanerId_1_1_" d="m448 322.4-15.2-15.2-15.2 15.2-15.2-15.2-15.2 15.2-15.2-15.2-15.2 15.2-10.4-10.4v35.2c0 29.6 24 53.6 53.6 53.6h4.8c29.6 0 53.6-24 53.6-53.6V312z" style="fill:#ea7d9f"/><path d="M420.973 311.895h16v5.6h-16z" style="fill:#f4aec7" transform="rotate(-45 428.972 314.695)"/><path d="M390.836 311.429h16v5.6h-16z" style="fill:#f4aec7" transform="rotate(-45.04 398.836 314.23)"/><path d="m456 322.4 2.4-2.4v-8l-6.4 6.4zm-101.6 24.8V320l-8-8v35.2c0 29.6 24 53.6 53.6 53.6h6.4c-28.8-.8-52-24.8-52-53.6" style="fill:#f4aec7"/><path d="M360.028 311.563h16.001v5.6h-16.001z" style="fill:#f4aec7" transform="rotate(-45.02 368.028 314.363)"/><path d="M254.4 462.4c0 4-3.2 7.2-7.2 7.2s-7.2-3.2-7.2-7.2V148.8c0-4 3.2-7.2 7.2-7.2s7.2 3.2 7.2 7.2z" style="fill:#036d3f"/><path d="M276 41.6c0 36.8-12.8 76.8-28.8 76.8s-28.8-40-28.8-76.8S231.2 0 247.2 0c16 .8 28.8 4.8 28.8 41.6" style="fill:#f283b1"/><path d="M247.2.8c16 0 28.8 4.8 28.8 41.6s-12.8 76.8-28.8 76.8" style="fill:#ef6597"/><path d="M218.4 268.8c0-36.8 12.8-76.8 28.8-76.8s28.8 40 28.8 76.8-12.8 41.6-28.8 41.6-28.8-4.8-28.8-41.6" style="fill:#f283b1"/><path d="M247.2 310.4c-16 0-28.8-4.8-28.8-41.6s12.8-76.8 28.8-76.8" style="fill:#ef6597"/><path d="M360.8 184c-36.8 0-76.8-12.8-76.8-28.8s40-28.8 76.8-28.8 41.6 12.8 41.6 28.8-4.8 28.8-41.6 28.8" style="fill:#f283b1"/><path d="M402.4 155.2c0 16-4.8 28.8-41.6 28.8S284 171.2 284 155.2" style="fill:#ef6597"/><path d="M133.6 127.2c36.8 0 76.8 12.8 76.8 28.8s-40 28.8-76.8 28.8S92 172 92 156s4.8-28.8 41.6-28.8" style="fill:#f283b1"/><path d="M92 155.2c0-16 4.8-28.8 41.6-28.8s76.8 12.8 76.8 28.8" style="fill:#ef6597"/><path d="M348 95.2c-26.4 25.6-63.2 45.6-74.4 34.4s8-48.8 34.4-74.4c25.6-25.6 38.4-20 49.6-8.8 10.4 10.4 16 22.4-9.6 48.8" style="fill:#f283b1"/><path d="M356.8 45.6c11.2 11.2 16.8 23.2-8.8 49.6-26.4 25.6-63.2 45.6-74.4 34.4" style="fill:#ef6597"/><path d="M146.4 216c26.4-25.6 63.2-45.6 74.4-34.4s-8 48.8-34.4 74.4-38.4 20-49.6 8.8c-10.4-11.2-16-23.2 9.6-48.8" style="fill:#f283b1"/><path d="M137.6 264.8c-11.2-11.2-16.8-23.2 8.8-49.6 26.4-25.6 63.2-45.6 74.4-34.4" style="fill:#ef6597"/><path d="M307.2 256c-25.6-26.4-45.6-63.2-34.4-74.4s48.8 8 74.4 34.4 20 38.4 8.8 49.6c-10.4 10.4-22.4 16.8-48.8-9.6" style="fill:#f283b1"/><path d="M356.8 264.8c-11.2 11.2-23.2 16.8-49.6-8.8-25.6-26.4-45.6-63.2-34.4-74.4" style="fill:#ef6597"/><path d="M187.2 55.2c25.6 25.6 45.6 63.2 34.4 74.4s-48.8-8-74.4-34.4c-26.4-26.4-20.8-38.4-9.6-49.6s23.2-16.8 49.6 9.6" style="fill:#f283b1"/><path d="M137.6 45.6c11.2-11.2 23.2-16.8 49.6 8.8 25.6 25.6 45.6 63.2 34.4 74.4" style="fill:#ef6597"/><circle cx="247.2" cy="155.2" r="48" style="fill:#f7c90b"/><path d="M281.6 121.6c18.4 19.2 18.4 49.6 0 68-19.2 19.2-49.6 19.2-68 0" style="fill:#f9a908"/><path d="M252 401.6s-12.8-52.8-46.4-64.8-29.6-39.2-29.6-39.2-38.4 80 19.2 136.8c45.6 44.8 52.8 24 52.8 24z" style="fill:#036d3f"/><path d="M242.4 401.6s12.8-52.8 46.4-64.8 29.6-39.2 29.6-39.2 38.4 80-19.2 136.8c-45.6 44.8-52.8 24-52.8 24z" style="fill:#036d3f"/></svg>