<svg xmlns="http://www.w3.org/2000/svg" xml:space="preserve" id="Layer_Autumn" x="0" y="0" viewBox="0 0 497.6 497.6"><circle cx="248.8" cy="213.6" r="213.6" style="fill:#f39c12"/><path d="M400 364.8c-83.2 83.2-219.2 83.2-302.4 0s-83.2-219.2 0-302.4" style="fill:#e67e22"/><path d="M496.8 497.6c-36.8-78.4-142.4-55.2-248-55.2S37.6 419.2.8 497.6z" style="fill:#5e3a24"/><path d="M446.4 497.6c-31.2-78.4-108-134.4-197.6-134.4s-166.4 56-197.6 134.4z" style="fill:#a04000"/><path d="M446.4 497.6c-31.2-78.4-108-110.4-197.6-110.4s-166.4 32-197.6 110.4z" style="fill:#873600"/><path d="M313.6 497.6H184l31.2-77.6h67.2z" style="fill:#4a2311"/><rect width="12" height="40" x="90" y="440" rx="6" style="fill:#ecf0f1"/><path d="M60 440c0-20 30-35 45-35s45 15 45 35z" style="fill:#c0392b"/><circle cx="85" cy="420" r="5" opacity=".6" style="fill:#fff"/><circle cx="115" cy="415" r="4" opacity=".6" style="fill:#fff"/><rect width="12" height="40" x="395" y="440" rx="6" style="fill:#ecf0f1"/><path d="M365 440c0-20 30-35 45-35s45 15 45 35z" style="fill:#c0392b"/><path d="M254.4 462.4c0 4-3.2 7.2-7.2 7.2s-7.2-3.2-7.2-7.2V160c0-4 3.2-7.2 7.2-7.2s7.2 3.2 7.2 7.2z" style="fill:#4a2311"/><circle cx="247.2" cy="120" r="60" style="fill:#ba4a00"/><circle cx="210" cy="150" r="50" style="fill:#d35400"/><circle cx="290" cy="150" r="50" style="fill:#e67e22"/><path d="m180 250 15 10-5 15-15-10z" style="fill:#d35400" transform="rotate(15 180 250)"/><path d="m320 280 15 10-5 15-15-10z" style="fill:#ba4a00" transform="rotate(-20 320 280)"/><path d="M247.2 160v300c10 0 15-20 15-20V160" opacity=".3" style="fill:#2e1509"/></svg>