<svg xmlns="http://www.w3.org/2000/svg" viewBox="0 0 128 128"><g id="SVGRepo_iconCarrier"><g id="_05_snowball" data-name="05 snowball"><path d="M113.43 98a60 60 0 1 0-98.86 0c0 2.67 98.86 2.67 98.86 0" style="fill:#40c4ff"/><path d="m93.65 91.47 1.81.4a4 4 0 0 0 4.86-4.1L98.67 55 93 65.71 45.82 54 32.34 23l-9.87 64.35a4 4 0 0 0 4.47 4.57L41 90.09Z" style="fill:#b3e5fc"/><path d="M75 49.26V45h10v11.81z" style="fill:#ff6096"/><path d="m85.22 68.33-1.14 21.25H43.92l-1.15-21.25L64 43z" style="fill:#f57f17"/><path d="M91.87 69.31a4 4 0 0 1-5.65 0L64 47.16 41.78 69.32a4 4 0 0 1-5.64-5.67l25-25a4 4 0 0 1 5.64 0l25 25a4 4 0 0 1 .09 5.66M89 41a4 4 0 0 0-4-4H75a4 4 0 0 0-4 4 4 4 0 0 0 4 4h10a4 4 0 0 0 4-4" style="fill:#e1f5fe"/><path d="M60 72h-8a8 8 0 0 1 8-8Zm16 0a8 8 0 0 0-8-8v8Z" style="fill:#ffd600"/><path d="M60 72v-8h8v8Zm-8 0v8h8v-8Zm16 0v8h8v-8Z" style="fill:#ff0"/><path d="M60 72h8v8h-8z" style="fill:#fff9c4"/><path d="M102.49 98a2 2 0 0 0 .62-3.9 128.5 128.5 0 0 0-78.22 0 2 2 0 0 0 .62 3.9Z" style="fill:#fffde7"/><path d="M116 106v-8H12v8a4 4 0 0 0-4 4v8a2 2 0 0 0 2 2h108a2 2 0 0 0 2-2v-8a4 4 0 0 0-4-4" style="fill:#cfd8dc"/><path d="M12 106v-8h104v8m-2.57-8a60 60 0 1 0-98.86 0m77.29-34.35-25-25a4 4 0 0 0-5.64 0l-25 25a4 4 0 0 0 5.64 5.67L64 47.16l22.22 22.16a4 4 0 0 0 5.64-5.67M43.92 89.58l-1.15-21.25m41.31 21.25 1.15-21.25M89 41a4 4 0 0 0-4-4H75a4 4 0 0 0-4 4h0a4 4 0 0 0 4 4h10a4 4 0 0 0 4-4m-4 4v11.81M68 80V64h-8v16m-8-8v8h24v-8m-16-8a8 8 0 0 0-8 8h24a8 8 0 0 0-8-8M45.82 54 32.34 23l-9.87 64.35a4 4 0 0 0 4.47 4.57L41 90.09m52.61 1.38 1.81.4a4 4 0 0 0 4.86-4.1L98.67 55 93 65.71M102.49 98a2 2 0 0 0 .62-3.9 128.5 128.5 0 0 0-78.22 0 2 2 0 0 0 .62 3.9M52.9 14h.25M80 27h.25M71 21h.25m-27.37 3h.24m17.81 6h.25m38 12h.25m7.43 26h.24m3.27-16h.25M89 18h.25M15.46 56h.25m2.71-14h.25" style="fill:none;stroke:#000;stroke-linecap:round;stroke-linejoin:round;stroke-width:4px"/><path d="M116 106H12a4 4 0 0 0-4 4v8a2 2 0 0 0 2 2h108a2 2 0 0 0 2-2v-8a4 4 0 0 0-4-4" style="fill:none;stroke:#000;stroke-linecap:round;stroke-linejoin:round;stroke-width:4px;stroke-dasharray:167 8 .25 8 1000"/></g></g></svg>