<svg xmlns="http://www.w3.org/2000/svg" xml:space="preserve" id="Layer_1" x="0" y="0" viewBox="0 0 512.302 512.302"><path d="M337.167 432.712H234.149c-28.354-.415-48.772-20.824-48.772-46.009V87.854c60.698 12.12 127.629 11.882 194.207 0v298.849c0 25.185-20.41 45.595-42.417 46.009" style="fill:#81c784"/><path d="M270.837 248.153a12.74 12.74 0 0 0-13.021-7.521c-11.008 1.201-18.185-11.246-11.652-20.171a12.74 12.74 0 0 0 0-15.042c-6.532-8.925.644-21.372 11.652-20.171a12.74 12.74 0 0 0 13.021-7.521c4.467-10.125 18.829-10.125 23.296 0a12.73 12.73 0 0 0 13.021 7.521c10.999-1.201 18.185 11.246 11.652 20.171a12.715 12.715 0 0 0 0 15.042c6.532 8.925-.653 21.372-11.652 20.171a12.73 12.73 0 0 0-13.021 7.521c-4.467 10.125-18.83 10.125-23.296 0" style="fill:#fec24c"/><path d="M73.674 128.29 48.71 153.255l-42.699-14.23c-6.197-2.066-8.051-9.922-3.434-14.548l42.319-42.311c4.617-4.617 12.482-2.763 14.548 3.434z" style="fill:#81c784"/><path d="M185.381 239.861 73.677 128.289l-24.973 24.973 136.677 136.413zm194.207 24.713c-.274-.23 179.032-143.722 0-97.103v-36.052c298.567-55.049.079 186.368 0 186.121z" style="fill:#4caf50"/><path d="M291.312 212.777c0 4.873-3.955 8.828-8.828 8.828s-8.828-3.955-8.828-8.828 3.955-8.828 8.828-8.828 8.828 3.955 8.828 8.828" style="fill:#fff"/><path d="M211.864 344.026c4.882 0 8.828-3.946 8.828-8.828s-3.946-8.828-8.828-8.828h-26.483v17.655zm17.655 35.31a8.82 8.82 0 0 0 8.828-8.828 8.82 8.82 0 0 0-8.828-8.828h-44.138v17.655z" style="fill:#4caf50"/></svg>