<svg xmlns="http://www.w3.org/2000/svg" xml:space="preserve" id="Layer_1" x="0" y="0" viewBox="0 0 512.004 512.004"><path d="m320.495 266.246 145.828 151.003c17.642 18.268 18.208 47.051 1.298 65.999-18.782 21.045-51.491 21.689-71.088 1.398L201.351 282.539" style="fill:#ff6f52"/><path d="M431.641 484.646 236.459 282.539l88.13-12.05-4.096-4.241-119.144 16.292 195.182 202.108c14.064 14.563 34.884 18.341 52.461 11.533a48.3 48.3 0 0 1-17.351-11.535" style="fill:#e25749"/><path d="M252.646 332.516v.012l-1.439 1.638-22.224 25.255-112.125 127.408c-16.77 19.076-45.419 21.978-65.688 6.671-17.355-13.154-23.289-35.577-16.489-54.863a48.5 48.5 0 0 1 9.351-15.892l117.473-133.518 22.083-25.091z" style="fill:#ff6f52"/><path d="M86.282 493.5c-17.355-13.154-23.289-35.577-16.489-54.863a48.5 48.5 0 0 1 9.351-15.892l117.473-133.518 5.733-6.514-18.762-18.577-22.083 25.091L44.032 422.744a48.6 48.6 0 0 0-9.351 15.892c-6.799 19.286-.866 41.709 16.489 54.863 13.847 10.458 31.602 12.41 46.811 6.521a48.6 48.6 0 0 1-11.699-6.52" style="fill:#e25749"/><path d="M259.925 183.04c-7.36-17.409-11.439-36.542-11.439-56.631 0-46.983 22.268-88.76 56.818-115.374-45.625-8.046-94.348 5.753-129.334 41.416-55.405 56.479-55.234 147.909.371 204.19l77.563 80.315 66.589-70.711c.002.001-46.931-57.102-60.568-83.205" style="fill:#cfdce5"/><path d="M252.646 332.516v.012l-1.439 1.638-22.224 25.255-60.831-62.985a142 142 0 0 1-6.647-7.209l22.083-25.091z" style="fill:#e25749"/><path d="M320.495 266.246s87.483-98.833 37.76-185.873c0 0-77.704 27.382-98.328 102.667" style="fill:#bac6cc"/><path d="M358.241 80.39c-.398 1.463-25.922 93.763-81.3 126.028l-17.016-23.382c20.457-74.7 97.122-102.225 98.316-102.646" style="fill:#cfdce5"/><path d="m472.764 411.152-90.132-93.33c-3.368-3.486-8.925-3.586-12.41-.216a8.777 8.777 0 0 0-.216 12.411l90.132 93.33c14.369 14.879 14.837 38.624 1.063 54.058-7.439 8.337-17.691 13.05-28.864 13.27-11.195.207-21.599-4.085-29.362-12.124l-136.814-141.67 54.542-57.917 30.869 31.964a8.75 8.75 0 0 0 6.315 2.68 8.777 8.777 0 0 0 6.312-14.874l-31.829-32.959c7.655-9.747 22.289-30.089 33.814-56.291 21.649-49.212 21.587-95.363-.178-133.464a8.78 8.78 0 0 0-10.538-3.925c-2.413.85-59.416 21.436-90.228 75.653a8.776 8.776 0 0 0 3.293 11.967 8.775 8.775 0 0 0 11.968-3.294c17.479-30.759 45.188-49.727 63.185-59.51-8.194 22.249-25.833 62.776-53.123 88.388a8.776 8.776 0 0 0 6.01 15.177 8.75 8.75 0 0 0 6.005-2.377c14.529-13.636 27.959-32.141 39.913-54.999 7.413-14.171 13.076-27.766 17.099-38.568 9.505 28.881 6.413 61.563-9.292 97.467-9.76 22.315-22.221 40.391-29.699 50.257-13.328-16.626-42.441-53.73-52.597-72.969-7.039-16.768-10.606-34.556-10.606-52.882 0-42.763 19.463-82.281 53.396-108.42a8.776 8.776 0 0 0-3.83-15.597c-31.618-5.576-63.615-1.342-92.544 12.238a8.778 8.778 0 1 0 7.458 15.89c19.773-9.28 41.181-13.635 62.779-12.873-28.697 28.769-44.812 67.419-44.812 108.763 0 20.806 4.082 41.009 12.132 60.05q.138.33.305.646c11.39 21.807 44.172 63.2 56.691 78.717l-54.676 58.06a9 9 0 0 0-.782-.102l-70.794-73.305c-52.176-52.809-52.333-138.885-.349-191.875a138.4 138.4 0 0 1 14.921-13.173 8.776 8.776 0 0 0 1.665-12.3 8.777 8.777 0 0 0-12.301-1.666 156 156 0 0 0-16.817 14.847c-58.657 59.793-58.48 156.916.323 216.433l25 25.888.008.009 44.236 45.806-129.01 146.592c-13.654 15.539-37.285 17.937-53.791 5.465-13.857-10.496-19.286-28.557-13.514-44.935a39.6 39.6 0 0 1 7.662-13.023l119.863-136.227a8.776 8.776 0 0 0-.792-12.387 8.773 8.773 0 0 0-12.387.792L37.571 416.944a57.2 57.2 0 0 0-11.035 18.774c-8.324 23.616-.501 49.646 19.477 64.779 10.24 7.738 22.379 11.507 34.457 11.507 15.999 0 31.888-6.614 43.106-19.379l128.06-145.515 138.711 143.632c10.771 11.154 25.738 17.492 41.22 17.491q.557 0 1.114-.011c15.875-.312 31.043-7.286 41.616-19.132 19.859-22.249 19.185-56.485-1.533-77.938"/><path d="M278.902 262.286c0-15.214-12.377-27.591-27.589-27.591s-27.589 12.377-27.589 27.591 12.377 27.589 27.589 27.589 27.589-12.376 27.589-27.589m-37.625 0c0-5.534 4.502-10.036 10.035-10.036s10.035 4.502 10.035 10.036-4.502 10.035-10.035 10.035-10.035-4.501-10.035-10.035"/></svg>