<svg xmlns="http://www.w3.org/2000/svg" xml:space="preserve" id="Capa_1" x="0" y="0" viewBox="0 0 470 470"><path d="M344.659 117.835C289.572 37.467 265.151 15 235 15s-54.572 22.467-109.659 102.835zM290 86.736c4.411 0 8 3.589 8 8s-3.589 8-8 8-8-3.589-8-8 3.589-8 8-8m-20-30c4.411 0 8 3.589 8 8s-3.589 8-8 8-8-3.589-8-8 3.589-8 8-8m-80 22c4.411 0 8 3.589 8 8s-3.589 8-8 8-8-3.589-8-8 3.589-8 8-8" style="fill:#ffe6b8"/><path d="M290 102.736c4.411 0 8-3.589 8-8s-3.589-8-8-8-8 3.589-8 8 3.589 8 8 8m-20-30c4.411 0 8-3.589 8-8s-3.589-8-8-8-8 3.589-8 8 3.589 8 8 8m-80 22c4.411 0 8-3.589 8-8s-3.589-8-8-8-8 3.589-8 8 3.589 8 8 8" style="fill:#4d3d36"/><path d="M395.716 419.923 382.693 406.9a7.5 7.5 0 0 1-2.192-5.042l-6.651-191.216H148.907a7.5 7.5 0 0 1-7.5-7.5h-15a7.5 7.5 0 0 1-7.5 7.5H96.151L89.5 401.858a7.5 7.5 0 0 1-2.192 5.042l-13.023 13.023c-7.186 7.186-7.186 18.879.001 26.065a18.3 18.3 0 0 0 13.032 5.398c4.923 0 9.551-1.917 13.031-5.398l4.748-4.748a7.5 7.5 0 0 1 7.384-1.903C145.952 448.999 192.899 455 235 455s89.048-6.001 122.521-15.663a7.5 7.5 0 0 1 7.384 1.903l4.748 4.748a18.3 18.3 0 0 0 13.031 5.398c4.924 0 9.552-1.917 13.032-5.398 7.186-7.186 7.186-18.879 0-26.065m-53.392-155.349-33.985 35a7.5 7.5 0 0 1-10.762 0l-28.604-29.458-28.6 29.458a7.5 7.5 0 0 1-10.762 0l-28.598-29.457-28.599 29.457a7.5 7.5 0 0 1-10.762 0l-33.979-35a7.5 7.5 0 1 1 10.761-10.448l28.598 29.457 28.599-29.457a7.5 7.5 0 0 1 10.762 0l28.598 29.457 28.6-29.457a7.5 7.5 0 0 1 10.762-.001l28.604 29.458 28.604-29.458a7.5 7.5 0 0 1 10.605-.156 7.497 7.497 0 0 1 .158 10.605" style="fill:#fcdb5a"/><path d="m406.322 409.316-10.934-10.934-6.57-188.861c11.321-3.342 19.608-13.826 19.608-26.215v-38.138c0-15.072-12.262-27.334-27.334-27.334h-18.28C300.124 25.442 272.378 0 235 0s-65.124 25.442-127.813 117.835h-18.28c-15.072 0-27.334 12.262-27.334 27.334v38.138c0 12.389 8.287 22.873 19.608 26.215l-6.57 188.861-10.935 10.934c-13.034 13.035-13.034 34.244 0 47.278 6.314 6.314 14.709 9.792 23.64 9.792 8.93 0 17.324-3.477 23.639-9.792l1.647-1.647C146.97 464.267 193.347 470 235 470s88.03-5.733 122.397-15.053l1.647 1.647c6.314 6.314 14.709 9.792 23.639 9.792s17.325-3.477 23.64-9.792c13.034-13.034 13.034-34.243-.001-47.278m-36.67 36.672-4.748-4.748a7.5 7.5 0 0 0-7.384-1.903C324.048 448.999 277.101 455 235 455s-89.048-6.001-122.521-15.663a7.5 7.5 0 0 0-7.384 1.903l-4.748 4.748a18.3 18.3 0 0 1-13.031 5.398 18.3 18.3 0 0 1-13.032-5.398c-7.187-7.187-7.187-18.879-.001-26.065L87.307 406.9a7.5 7.5 0 0 0 2.192-5.042l6.651-191.216h22.757a7.5 7.5 0 0 0 7.5-7.5 7.5 7.5 0 0 0-7.5-7.5h-30c-6.801 0-12.334-5.533-12.334-12.334V145.17c0-6.801 5.533-12.334 12.334-12.334h292.186c6.801 0 12.334 5.533 12.334 12.334v38.138c0 6.801-5.533 12.334-12.334 12.334H148.907a7.5 7.5 0 0 0-7.5 7.5 7.5 7.5 0 0 0 7.5 7.5H373.85l6.651 191.216c.065 1.898.85 3.7 2.192 5.042l13.022 13.023c7.187 7.186 7.187 18.879 0 26.065a18.3 18.3 0 0 1-13.032 5.398c-4.922 0-9.55-1.917-13.031-5.398M235 15c30.151 0 54.572 22.467 109.659 102.835H125.341C180.428 37.467 204.849 15 235 15" style="fill:#4d3d36"/><path d="m331.563 254.125-28.604 29.458-28.604-29.458a7.5 7.5 0 0 0-10.762.001l-28.6 29.457-28.598-29.457a7.5 7.5 0 0 0-10.762 0l-28.599 29.457-28.598-29.457a7.5 7.5 0 1 0-10.761 10.448l33.979 35a7.5 7.5 0 0 0 10.762 0l28.599-29.457 28.598 29.457a7.5 7.5 0 0 0 10.762 0l28.6-29.458 28.604 29.458a7.5 7.5 0 0 0 10.762 0l33.985-35a7.5 7.5 0 1 0-10.763-10.449" style="fill:#4d3d36"/><path d="M141.407 203.141a7.5 7.5 0 0 1 7.5-7.5h232.186c6.801 0 12.334-5.533 12.334-12.334v-38.138c0-6.801-5.533-12.334-12.334-12.334H88.907c-6.801 0-12.334 5.533-12.334 12.334v38.138c0 6.801 5.533 12.334 12.334 12.334h30a7.5 7.5 0 0 1 7.5 7.5z" style="fill:#ffad61"/></svg>