<svg xmlns="http://www.w3.org/2000/svg" xml:space="preserve" id="Layer_1" width="800" height="800" viewBox="0 0 2000 2000"><path fill="gray" d="M972.3 512.6C861.5 625.9 849.8 749 849.1 789l199.7-199.9z"/><path fill="#00c3ff" d="M440.7 1306.1c-21.9 33.2-12.3 46.1 1.4 55.1 6.4 4.2 11.9 6.2 17.3 6.2 11 0 22-8.7 33.9-26.7 18.1-27.4 13.3-64.1 11.5-74.5-10.4 2.3-46 12.4-64.1 39.9M296 1449.5c5.4 1.8 10.1 2.6 14.3 2.6 10.1 0 25-4.3 37.3-41.3 12.2-36.8-5-77.2-9.9-87.6-10.2 5.4-48 27.7-60.1 64.5-14.6 44.2.3 55.8 18.4 61.8m76.5-164.6c6.7 5.1 12.5 7.5 18.3 7.5 10.5 0 21.7-7.9 34.2-24.2 20-26.1 17.9-63 16.9-73.5-10.4 1.7-46.7 9.1-66.7 35.2-10.9 14.2-15.9 25.7-15.3 35.2.5 7.2 4.5 13.5 12.6 19.8"/><path fill="gray" d="M1356.1 392.9c8.7-3.6 17.8-5.4 27.2-5.4 17.2 0 35.3 5.9 55.4 18 92.9 56.2 106.6 222.2 106.3 318.3l71.3 56.4c6.3-111.1 2.1-351.6-139.7-437.4-31.4-19-62.8-28.6-93.4-28.6-19 0-37.6 3.7-55.2 11-58.1 24.1-97.4 83.8-120.7 131.3l59.3 46.9c18.9-42.5 49.1-93.7 89.5-110.5M609 1113.7l-171.7-3.7 212.8 263.2 37.8-142.4-13.4-19.9z"/><path fill="#00c3ff" d="M510.6 1390.7c-25.1 30.8-16.8 44.6-4.2 54.9 6.7 5.5 12.6 8 18.7 8 10.3 0 21.5-7.6 34.2-23.3 20.7-25.5 19.7-62.5 18.9-73-10.4 1.5-46.9 8-67.6 33.4m-50.8 186.9c0 46.5 17.7 52.9 36.9 52.9s36.9-6.4 36.9-52.9c0-38.7-28.9-71.7-36.9-80.1-8 8.3-36.9 41.3-36.9 80.1m-95.5 61.1c0 46.5 17.7 52.9 36.9 52.9s36.9-6.4 36.9-52.9c0-38.7-28.9-71.7-36.9-80.1-8 8.4-36.9 41.4-36.9 80.1m9.7-171.9c-2.2 20.8-.1 35.3 6.3 44.3 5 7 12.9 10.9 24.8 12.1 2.3.2 4.4.4 6.4.4 14.3 0 31.3-5.6 35.9-49 4.1-38.6-21.2-74.4-28.2-83.5-8.9 7.5-41.1 37.2-45.2 75.7"/><path fill="gray" d="m1266.83 1345.947-58.619-58.619 469.515-469.514 58.618 58.618z"/><path fill="#b2b2b2" d="m1653.9 825-460.3-364.2-132 132.1c-.1.2-.2.4-.3.5l-210 210 276.9 350 44.3 56 42.9 54.2zm-653.5 185.5-378.8 101 8.3 12.4 67.4 99.8 458.9-16.2-18.4-23.4z"/><path fill="#00c3ff" d="M255.3 1568.7c0 46.5 17.7 52.9 36.9 52.9s36.9-6.4 36.9-52.9c0-38.7-28.9-71.7-36.9-80.1-7.9 8.4-36.9 41.4-36.9 80.1"/><path fill="#0080ff" d="M354.4 1250.9s10.2 16.6 36 12.5c25.7-4.2 48.4-51.2 54.8-74.7 0 0 1.2 55.1-7.8 74.2-9.1 19.1-9.6 33.5-32.3 36s-28.2 15.2-42.6-5c-14.5-20.3-8.1-43-8.1-43m66.7 90.6s16.6 10.8 35.2 6.1 36.8-30.4 42.4-50.7c5.5-20.2 8-40.1 8-40.1s11.4 17.7 8.9 42.9-11.3 60.5-29.1 67.6c-17.7 7.1-30.4 13.2-45.4 5.9-15-7.4-20-31.7-20-31.7m67.2 101.3s30.3 6.9 48.1-9.4 37.4-55.4 44.9-82.2c0 0 6.9 42.6-2.8 61.7s-9.9 29.9-32.9 39.3-27.2 12.8-39 8.9c-11.9-3.9-18.3-18.3-18.3-18.3m-152.5-130.7s10.2 41.4 0 79-32.9 56.3-50.7 62.6c-17.7 6.3 21.6 17.4 41 5.7s37.1-36.3 36.8-64.2c-.2-28-19.6-75.9-27.1-83.1m78.9 69s11.4 30.7 13.1 59.8c1.6 29.1-5.4 58.3-10.8 70.6-5.5 12.2-15.8 18-15.8 18s30.9 3.9 41.3-12.2 21.2-28.1 14.9-61.8c-6.4-33.8-31.3-68.1-42.7-74.4m75.3 107.5s21.2 27.5 22.8 64.5c1.7 37-2.5 76.8-22.8 88s47.3-5.8 51.9-29.1 5.8-58.5-10.8-86.4c-16.6-27.7-41.1-37-41.1-37m-99.2 213.1s19.5-6.6 26.6-37.8c7.1-31.1-15.4-104.6-19.9-116.3-4.6-11.6 30.6 22.8 40.6 47.8s15 56.5 6.7 76-7.1 28.7-18.7 32.8-35.3-2.5-35.3-2.5m-102.2-221.9s17.9 42.4 19.9 68.7c2.1 26.4-.9 65.6-16.3 78.3s23.4 6.9 34.2-10.6c10.8-17.4 20.8-52.5 9.6-75.6-11.2-23-47.4-60.8-47.4-60.8"/><path fill="#4d4d4d" d="M578.6 1302.4s26.3-2.8 46.8-30.4c20.5-27.7 33.8-91.3 33.8-91.3l36.5 54.3-42.7 156.1zm370.4-775s24.1 52 21.8 85.8C968.6 646.9 838 777 838 777v28.2l222.6-223.1s-87.5-87.5-89.1-85.8c-1.8 1.7-22.5 31.1-22.5 31.1m293-31.1c.8-2.9 38.2-101.3 83-120.4s109.6-9.1 154.9 36.1 62.3 122.9 62.3 122.9l-10.8-7.1s17 76.4 19.5 115.4 0 90.5 0 90.5-18.3-14.1-18.3-15.4c0-1.2-4.6-179-51.9-245.4s-82.6-73.1-122.5-59-81 104.6-81 104.6zm-38.6 772.4s49.8 27.7 86.4 13.8 440.1-428.2 440.1-428.2l26.6 23.3-490.8 485.8-77.2-75.6z"/><path fill="#989898" d="M663 1180.6s215.9 7.8 292.9-6.6 131.8-61.5 131.8-61.5l81.9 103.5-473.9 18.8z"/><path fill="#989898" d="M969.2 973s168.6 60.8 313.1 37.5c144.5-23.4 343-221.5 343-221.5l35.7 32.1-449.3 454.2-58.1-78.9L1000 1000z"/><path d="M1695.2 792c-4.7-4.7-10.9-7.2-17.5-7.2-6.3 0-12.3 2.4-16.9 6.7l-14-11.1c6.3-115.4 1.1-369.6-154.5-463.6-36.2-21.9-72.9-33-109.2-33-23.1 0-45.6 4.5-66.9 13.4-49.5 20.6-93.9 66-128.9 131.8-4.4 1.1-8.4 3.3-11.6 6.5l-118.6 118.7-67.4-67.4c-4.7-4.7-10.9-7.2-17.5-7.2s-12.8 2.6-17.4 7.2c-77.4 77.2-110.2 159-124.1 213.9-15.3 60.5-11.9 102.5-11.7 104.6l.5 3.9.7 1.3c.5 1.6 1.1 3.1 1.8 4.3l.4.7.2.4 137.3 173.7-350.7 93.5-184.2-4c-9.5 0-18.1 5.3-22.3 13.8-4.2 8.6-3 18.9 3 26.3l40.4 50-4 .4c-5.8.6-57.3 7-86.5 45.1-14.8 19.2-21.4 36.2-20.3 51.9.7 9.5 4.2 17.9 10.2 25.6l-15.8 7.3c-5.9 2.8-58.6 29.2-75.5 80.3-17.3 52.5.8 77 23.3 88.4l-.2.2c-4.8 4.5-46.5 45.9-46.5 100 0 64.1 33.5 77.6 61.6 77.6 17.2 0 36.4-5.1 48.7-23.7-.8 5.3-1.3 10.6-1.3 16.2 0 64.1 33.5 77.5 61.6 77.5 27 0 58.8-12.6 61.3-70.3 10.6 6.9 22.8 9.2 34.2 9.2 28.1 0 61.6-13.5 61.6-77.5 0-54.4-41.8-95.5-46.6-100l-2.1-2c5.1 1.8 10.3 2.8 15.6 2.8 18.2 0 35.7-10.6 53.4-32.4 22.5-27.7 25.2-63.3 24.8-82.1l30.3 37.5c4.7 5.8 11.7 9.2 19.2 9.2l3.2-.1 1.9-.4c9.2-1.9 16.3-8.8 18.7-17.8l36.8-138.4 442.9-15.7 25.6 32.4c-4.3 4.6-6.7 10.6-6.7 16.9 0 6.6 2.6 12.8 7.2 17.5l66.9 66.9c4.7 4.7 10.9 7.3 17.5 7.3 6.5 0 12.9-2.6 17.5-7.2L1762.4 894c4.7-4.7 7.3-10.9 7.3-17.5s-2.6-12.8-7.2-17.4zM1328 325.3c17.6-7.3 36.1-11 55.2-11 30.6 0 62 9.6 93.4 28.6 141.8 85.7 146 326.2 139.7 437.4l-71.3-56.4c.3-96.1-13.3-262.1-106.3-318.3-20.1-12.1-38.2-18-55.4-18-9.4 0-18.5 1.8-27.2 5.4-40.4 16.8-70.5 68-89.5 110.6l-59.3-46.9c23.3-47.6 62.6-107.3 120.7-131.4m185.2 349.4-213.9-169.3c21.3-44.5 45.9-75 68.5-84.3 4.9-2.1 10.1-3.1 15.4-3.1 11.5 0 24.4 4.5 39.6 13.6 67.3 40.7 86.1 157 90.4 243.1M972.3 512.6l76.6 76.6L849.1 789c.7-40 12.4-163.1 123.2-276.4m-505.6 682.2L504 1241l-.9.2c-3.5.6-23.4 4.6-44.5 16.5 9.7-25.3 9.2-50.7 8.1-62.9m37.9 71.3c1.8 10.4 6.6 47.1-11.5 74.5-11.8 18-22.9 26.7-33.9 26.7-5.4 0-10.8-2-17.3-6.2-13.6-9-23.2-21.9-1.4-55.1 18.3-27.4 53.9-37.5 64.1-39.9m-129.5-36.2c20-26 56.3-33.5 66.7-35.2 1.1 10.5 3.2 47.4-16.9 73.5-12.5 16.3-23.7 24.2-34.2 24.2-5.8 0-11.6-2.4-18.3-7.5-8.1-6.2-12.1-12.5-12.6-19.8-.6-9.5 4.4-21 15.3-35.2m-17.7 74.5c11 8.5 21.9 12.6 33.3 12.6 6.2 0 12.2-1.3 18.2-3.8-9.5 23.1-6.1 40.1 2.6 52.4l-5.2 4c-2.8 2.2-17.5 13.9-31.3 32.7 7.7-45.8-14-88.2-16.8-93.3l-4.1-7.6c1.2 1 2.1 2.1 3.3 3m-79.8 83.4c12.1-36.8 49.9-59 60.1-64.5 5 10.4 22.1 50.8 9.9 87.6-12.2 37-27.1 41.3-37.3 41.3-4.2 0-8.9-.9-14.3-2.6-18.1-6.1-33-17.7-18.4-61.8m14.6 233.7c-19.2 0-36.9-6.4-36.9-52.9 0-38.7 28.9-71.7 36.9-80.1 8 8.4 36.9 41.4 36.9 80.1 0 46.5-17.7 52.9-36.9 52.9m60.7-36.8c.5-5 .9-10.2.9-16 0-42.4-25.7-77-39.1-92.1 15.6-1.2 27.2-8.8 35.7-18.4-.3 2-.7 4-.9 6-2.9 27.1.6 47.1 10.7 61.2 5.6 7.8 13 13.3 22.1 17.1-6.7 7.1-19.5 22-29.4 42.2m48.3 106.9c-19.2 0-36.9-6.4-36.9-52.9 0-38.7 28.9-71.7 36.9-80.1 8 8.4 36.9 41.4 36.9 80.1-.1 46.5-17.8 52.9-36.9 52.9m35-128.8c-4.4-6.4-8.7-11.7-12.2-15.7 5.9-1.2 11.9-3.4 17.6-7.1-2.4 7.1-4.3 14.8-5.4 22.8m11.1-88.2c-4.6 43.5-21.6 49-35.9 49-2 0-4.1-.1-6.4-.4-11.9-1.3-19.8-5.1-24.8-12.1-6.4-9-8.5-23.5-6.3-44.3 4.1-38.5 36.3-68.3 45.1-75.7 7.2 9.1 32.4 45 28.3 83.5m12-82.6c8.8 0 17.2-2.6 25.3-7.5-9.2 13.3-14.3 25.6-14.9 37.3-.9 16.4 6.2 30.9 21.1 43 .8.7 1.6 1.1 2.4 1.7l-11.6 11c-1.4 1.3-6 5.9-11.8 13 .8-4.2 1.5-8.5 2-13.2 3.8-35.7-11.2-67.6-23-86.6 3.5.7 7 1.3 10.5 1.3m74.3 185.6c0 46.5-17.7 52.9-36.9 52.9s-36.9-6.4-36.9-52.9c0-38.7 28.9-71.7 36.9-80.1 7.9 8.3 36.9 41.3 36.9 80.1m25.8-147.2c-12.7 15.7-23.9 23.3-34.2 23.3-6 0-12-2.5-18.7-8-12.7-10.3-20.9-24.1 4.2-54.9 20.7-25.5 57.2-32 67.6-33.3.7 10.4 1.8 47.4-18.9 72.9M530.6 1274l47.4 58.6c-6.7.7-38.3 4.7-65.5 23.4.4-.6.9-1.2 1.3-1.8 18.3-27.8 18.7-60.7 16.8-80.2m119.5 99.2L437.3 1110l171.6 3.8 65.6 97.2 13.4 19.9zm47.2-149.5-67.3-99.8-8.4-12.4 378.8-101 137.4 173.6 18.5 23.3zm475.2-14.4-44.3-56-276.9-350 210-210c.2-.2.2-.4.3-.5l132-132.1L1653.9 825l-438.5 438.5zm94.3 136.6-58.6-58.6 469.5-469.5 58.6 58.6z"/></svg>