<svg xmlns="http://www.w3.org/2000/svg" xml:space="preserve" id="Layer_1" width="260" height="196" x="0" y="0" viewBox="0 0 260 196"><path d="M98 54v-8H73.153a23.1 23.1 0 0 0-3.86-9.306l17.806-17.806-5.657-5.657L63.64 31.032A23.1 23.1 0 0 0 54 27.097V2h-8v25.207a23.1 23.1 0 0 0-9.021 3.82l-17.78-17.779-5.656 5.657 17.781 17.78A23.1 23.1 0 0 0 27.457 46H2v8h25.457a23.1 23.1 0 0 0 3.88 9.334L13.56 81.112l5.657 5.657 17.782-17.782A23.1 23.1 0 0 0 46 72.793V98h8V72.903a23.1 23.1 0 0 0 9.62-3.921l17.804 17.805 5.657-5.656-17.802-17.805A23.1 23.1 0 0 0 73.153 54zM50.305 34.8c8.381 0 15.2 6.819 15.2 15.2s-6.818 15.2-15.2 15.2-15.2-6.819-15.2-15.2 6.819-15.2 15.2-15.2M242 178v-64h-20v44l-36-36H74L2 194h128l56-56 56 56h16zM71.529 153H88.51l-10 10H61.529zm22.638 0h16.982l-10 10H84.166zm22.638 0h16.982l-10 10h-16.982zm20.982-4h-16.982l11-11h16.982zm-22.639 0H98.167l11-11h16.981zm-22.638 0H75.529l11-11h16.981zm-34.981 18H74.51l-11 11H46.529zm22.637 0h16.982l-11 11H69.166zm22.638 0h16.982l-11 11H91.804z"/></svg>