<svg xmlns="http://www.w3.org/2000/svg" xml:space="preserve" id="Layer_1" x="0" y="0" viewBox="0 0 512 512"><path d="M120.351 52.016H391.65v368.191H120.351z" style="fill:#ffad61"/><path d="M165.288 98.932h181.423v321.275H165.288z" style="fill:#72bede"/><path d="M10.199 420.207h491.602v39.777H10.199z" style="fill:#f2f2f2"/><path d="M501.801 410.008h-54.566V220.303h25.498v126.47c0 5.633 4.567 10.199 10.199 10.199s10.199-4.566 10.199-10.199v-126.47h8.669c5.632 0 10.199-4.566 10.199-10.199s-4.567-10.199-10.199-10.199h-99.952V52.016c0-5.633-4.567-10.199-10.199-10.199H120.351c-5.632 0-10.199 4.566-10.199 10.199v147.888H10.199c-5.632 0-10.199 4.567-10.199 10.2s4.567 10.199 10.199 10.199h8.669v189.705h-8.669C4.567 410.008 0 414.574 0 420.207v39.777c0 5.633 4.567 10.199 10.199 10.199h491.602c5.632 0 10.199-4.566 10.199-10.199v-39.777c0-5.633-4.567-10.199-10.199-10.199m-74.964-189.705v189.705h-24.988V220.303zM130.55 410.008V220.303h24.541v189.705zm44.94-189.705h24.925v189.705H175.49zm161.02-20.399h-70.821v-90.773h70.821zm-91.219 0H175.49v-90.773h69.801zm-24.478 20.399h24.478v189.705h-24.478zm44.876 0h25.498v189.705h-25.498zm45.897 0h24.925v189.705h-24.925zm45.323 0h24.541v189.705h-24.541zM130.55 62.215h250.9v137.689h-24.541V98.932c0-5.633-4.567-10.199-10.199-10.199H165.29c-5.632 0-10.199 4.566-10.199 10.199v100.972H130.55zm-20.399 347.793H84.143V220.303h26.008zM39.267 220.303h24.478v189.705H39.267zm452.335 210.103v19.379H20.398v-19.379z" style="fill:#534741"/><path d="M482.932 369.211c-5.632 0-10.199 4.566-10.199 10.199v7.139c0 5.633 4.567 10.199 10.199 10.199s10.199-4.566 10.199-10.199v-7.139c.001-5.633-4.567-10.199-10.199-10.199" style="fill:#534741"/></svg>