<svg xmlns="http://www.w3.org/2000/svg" xml:space="preserve" id="Layer_1" x="0" y="0" viewBox="0 0 512 512"><path d="M445.217 489.739H66.783c-24.588 0-44.522-19.934-44.522-44.522V66.783c0-24.588 19.933-44.522 44.522-44.522h378.435c24.588 0 44.522 19.933 44.522 44.522v378.435c-.001 24.588-19.934 44.521-44.523 44.521" style="fill:#d8ffff"/><path d="M189.217 94.609c0 52.251-42.358 94.609-94.609 94.609S0 146.859 0 94.609 42.358 0 94.609 0s94.608 42.358 94.608 94.609" style="fill:#ffff81"/><path d="M144.696 94.609c0 27.662-22.424 50.087-50.087 50.087s-50.087-22.424-50.087-50.087 22.424-50.087 50.087-50.087 50.087 22.424 50.087 50.087" style="fill:#fff145"/><path d="M512 55.652c0 12.295-9.966 22.261-22.261 22.261h-33.391c-12.295 0-22.261-9.966-22.261-22.261 0-4.059 1.104-7.854 3.002-11.13H311.652c-12.295 0-22.261-9.966-22.261-22.261S299.357 0 311.652 0h144.696c12.295 0 22.261 9.966 22.261 22.261 0 4.059-1.104 7.854-3.002 11.13h14.132c12.295 0 22.261 9.966 22.261 22.261" style="fill:#c5ead4"/><path d="M500.87 211.478V512H11.13V211.478h93.003c-9.248-8.159-15.09-20.089-15.09-33.391 0-20.745 14.189-38.176 33.391-43.119V116.87c0-21.515 17.441-38.957 38.957-38.957 21.515 0 38.957 17.441 38.957 38.957v18.098c19.202 4.942 33.391 22.373 33.391 43.119 0 13.302-5.841 25.233-15.09 33.391h74.7c-9.247-8.159-15.088-20.089-15.088-33.391 0-20.745 14.189-38.176 33.391-43.119V116.87c0-21.515 17.441-38.957 38.957-38.957 21.515 0 38.957 17.441 38.957 38.957v18.098c19.202 4.942 33.391 22.373 33.391 43.119 0 13.302-5.841 25.233-15.09 33.391z" style="fill:#bbf260"/><path d="M233.739 178.087c0 24.588-19.933 44.522-44.522 44.522h-55.652c-24.588 0-44.522-19.933-44.522-44.522 0-20.745 14.189-38.176 33.391-43.119V116.87c0-21.515 17.441-38.957 38.957-38.957 21.515 0 38.957 17.441 38.957 38.957v18.098c19.202 4.943 33.391 22.374 33.391 43.119m155.826-43.119V116.87c0-21.515-17.441-38.957-38.957-38.957-21.515 0-38.957 17.441-38.957 38.957v18.098c-19.202 4.942-33.391 22.373-33.391 43.119 0 24.588 19.933 44.522 44.522 44.522h55.652c24.588 0 44.522-19.933 44.522-44.522.001-20.745-14.189-38.176-33.391-43.119" style="fill:#7f932a"/><path d="M144.696 256c0 24.588-19.933 44.522-44.522 44.522H44.522C19.933 300.522 0 280.588 0 256c0-20.745 14.189-38.176 33.391-43.119v-18.098c0-21.515 17.441-38.957 38.957-38.957 21.515 0 38.957 17.441 38.957 38.957v18.098c19.202 4.943 33.391 22.374 33.391 43.119m150.261-43.119v-18.098c0-21.515-17.441-38.957-38.957-38.957-21.515 0-38.957 17.441-38.957 38.957v18.098c-19.202 4.942-33.391 22.373-33.391 43.119 0 24.588 19.934 44.522 44.522 44.522h55.652c24.588 0 44.522-19.934 44.522-44.522 0-20.745-14.189-38.176-33.391-43.119m183.652 0v-18.098c0-21.515-17.441-38.957-38.957-38.957-21.515 0-38.957 17.441-38.957 38.957v18.098c-19.202 4.942-33.391 22.373-33.391 43.119 0 24.588 19.934 44.522 44.522 44.522h55.652C492.066 300.522 512 280.588 512 256c0-20.745-14.189-38.176-33.391-43.119" style="fill:#9fba41"/><path d="M55.652 205.913c0 15.368-12.458 27.826-27.826 27.826S0 221.281 0 205.913s12.458-27.826 27.826-27.826 27.826 12.458 27.826 27.826m239.305-27.826c-15.368 0-27.826 12.458-27.826 27.826s12.458 27.826 27.826 27.826 27.826-12.458 27.826-27.826-12.459-27.826-27.826-27.826m189.217 0c-15.368 0-27.826 12.458-27.826 27.826s12.458 27.826 27.826 27.826S512 221.281 512 205.913s-12.458-27.826-27.826-27.826" style="fill:#ff7039"/><path d="M32.918 178.56c.305 1.652.473 3.352.473 5.092 0 15.368-12.458 27.826-27.826 27.826-1.74 0-3.44-.168-5.092-.473A28 28 0 0 1 0 205.913c0-15.368 12.458-27.826 27.826-27.826 1.74 0 3.441.168 5.092.473m262.039-.473c-15.368 0-27.826 12.458-27.826 27.826 0 1.74.168 3.44.473 5.092 1.652.306 3.351.473 5.092.473 15.368 0 27.826-12.458 27.826-27.826 0-1.74-.168-3.44-.473-5.092a28 28 0 0 0-5.092-.473m194.309.473a28 28 0 0 0-5.092-.473c-15.368 0-27.826 12.458-27.826 27.826 0 1.74.168 3.44.473 5.092 1.652.306 3.351.473 5.092.473 15.368 0 27.826-12.458 27.826-27.826 0-1.74-.168-3.44-.473-5.092" style="fill:#ff8950"/><path d="M80.696 256v100.174a8.349 8.349 0 0 1-16.696 0V256a8.349 8.349 0 0 1 16.696 0M256 247.652a8.35 8.35 0 0 0-8.348 8.348v100.174a8.349 8.349 0 0 0 16.696 0V256a8.35 8.35 0 0 0-8.348-8.348m183.652 0a8.35 8.35 0 0 0-8.348 8.348v100.174a8.349 8.349 0 0 0 16.696 0V256a8.35 8.35 0 0 0-8.348-8.348" style="fill:#a07040"/><path d="M27.826 389.565v114.087a8.349 8.349 0 0 1-16.696 0V389.565a8.349 8.349 0 0 1 16.696 0m109.913-8.348a8.35 8.35 0 0 0-8.348 8.348v114.087a8.349 8.349 0 0 0 16.696 0V389.565a8.35 8.35 0 0 0-8.348-8.348m-59.13 0a8.35 8.35 0 0 0-8.348 8.348v114.087a8.349 8.349 0 0 0 16.696 0V389.565a8.35 8.35 0 0 0-8.348-8.348m118.261 0a8.35 8.35 0 0 0-8.348 8.348v114.087a8.349 8.349 0 0 0 16.696 0V389.565a8.35 8.35 0 0 0-8.348-8.348m59.13 0a8.35 8.35 0 0 0-8.348 8.348v114.087a8.349 8.349 0 0 0 16.696 0V389.565a8.35 8.35 0 0 0-8.348-8.348m59.13 0a8.35 8.35 0 0 0-8.348 8.348v114.087a8.349 8.349 0 0 0 16.696 0V389.565a8.35 8.35 0 0 0-8.348-8.348m59.131 0a8.35 8.35 0 0 0-8.348 8.348v114.087a8.349 8.349 0 0 0 16.696 0V389.565a8.35 8.35 0 0 0-8.348-8.348m59.13 0a8.35 8.35 0 0 0-8.348 8.348v114.087a8.349 8.349 0 0 0 16.696 0V389.565a8.35 8.35 0 0 0-8.348-8.348m59.131 0a8.35 8.35 0 0 0-8.348 8.348v114.087a8.349 8.349 0 0 0 16.696 0V389.565a8.35 8.35 0 0 0-8.348-8.348" style="fill:#ffaf4a"/><path d="M512 422.957a8.35 8.35 0 0 1-8.348 8.348H8.348a8.349 8.349 0 0 1 0-16.696h495.304a8.35 8.35 0 0 1 8.348 8.348" style="fill:#d3842f"/><path d="M512 503.652a8.35 8.35 0 0 1-8.348 8.348H8.348a8.349 8.349 0 0 1 0-16.696h495.304a8.35 8.35 0 0 1 8.348 8.348M144.696 356.174a8.35 8.35 0 0 1-8.348 8.348H47.304a8.349 8.349 0 0 1 0-16.696h89.043a8.35 8.35 0 0 1 8.349 8.348m169.739-8.348h-89.043a8.349 8.349 0 0 0 0 16.696h89.043a8.349 8.349 0 0 0 0-16.696m189.217 0h-89.043a8.349 8.349 0 0 0 0 16.696h89.043a8.349 8.349 0 0 0 0-16.696" style="fill:#9fba41"/></svg>