<svg xmlns="http://www.w3.org/2000/svg" xml:space="preserve" id="Layer_1" x="0" y="0" viewBox="0 0 512 512"><path d="M503.83 317.255c0-68.537-55.56-124.097-124.096-124.097H132.267l49.46 156.778z" style="fill:#a1ebff"/><path d="m181.727 317.255 74.636 187.256H503.83V317.255z" style="fill:#51d1f5"/><path d="M8.17 317.255v187.256h82.731l21.787-209.043zm248.193 0-104.518-21.787 21.787 209.043h82.731z" style="fill:#16a4cc"/><path d="M90.896 295.468h82.73v209.048h-82.73z" style="fill:#a1ebff"/><path d="M132.267 193.159C63.73 193.159 8.17 248.718 8.17 317.255h248.193c0-68.537-55.56-124.096-124.096-124.096" style="fill:#51d1f5"/><circle cx="256" cy="83.847" r="56.284" style="fill:#ffe670"/><path d="M379.734 184.308H132.267C59.335 184.308 0 243.642 0 316.574V503.83A8.17 8.17 0 0 0 8.17 512h495.66a8.17 8.17 0 0 0 8.17-8.17V316.574c0-72.932-59.334-132.266-132.266-132.266m-247.467 16.34c61.174 0 111.426 47.632 115.632 107.756H16.632c4.207-60.124 54.46-107.756 115.635-107.756m33.195 124.096V495.66H99.071V324.744zm16.34 0h66.39V495.66h-66.39zm-165.462 0h66.39V495.66H16.34zM264.533 495.66V316.574c0-49.883-27.76-93.4-68.642-115.927h183.843c61.174 0 111.426 47.632 115.634 107.756H286.564a8.17 8.17 0 0 0-8.17 8.17 8.17 8.17 0 0 0 8.17 8.17H495.66V495.66zM180.186 92.153h16.876a59.2 59.2 0 0 0 11.499 27.713l-11.948 11.948a8.17 8.17 0 0 0 5.778 13.947c2.09 0 4.182-.797 5.778-2.393l11.948-11.947a59.2 59.2 0 0 0 27.712 11.498v16.876c0 4.512 3.657 8.17 8.17 8.17s8.17-3.658 8.17-8.17V142.92a59.2 59.2 0 0 0 27.713-11.498l11.948 11.947a8.15 8.15 0 0 0 5.778 2.393 8.15 8.15 0 0 0 5.778-2.393 8.17 8.17 0 0 0 0-11.554l-11.948-11.948a59.2 59.2 0 0 0 11.499-27.713h16.876a8.17 8.17 0 0 0 8.17-8.17 8.17 8.17 0 0 0-8.17-8.17h-16.876a59.2 59.2 0 0 0-11.499-27.712l11.948-11.947a8.17 8.17 0 0 0 0-11.555 8.17 8.17 0 0 0-11.555 0l-11.949 11.947a59.2 59.2 0 0 0-27.713-11.499V8.17c0-4.512-3.657-8.17-8.17-8.17s-8.17 3.658-8.17 8.17v16.876a59.2 59.2 0 0 0-27.713 11.499l-11.947-11.947a8.17 8.17 0 0 0-11.555 0 8.17 8.17 0 0 0 0 11.555L208.562 48.1a59.2 59.2 0 0 0-11.499 27.712h-16.876a8.17 8.17 0 0 0-8.17 8.17 8.17 8.17 0 0 0 8.169 8.171M256 40.812c23.805 0 43.171 19.367 43.171 43.171S279.805 127.155 256 127.155s-43.171-19.367-43.171-43.171S232.195 40.812 256 40.812"/></svg>