<svg xmlns="http://www.w3.org/2000/svg" width="800" height="800" viewBox="0 0 1024 1024"><path fill="#ff4893" d="M599.036 579.755h175.83v303.706h-175.83zm175.83 0h-175.83c0-46.675 36.38-84.846 82.32-87.723a81 81 0 0 1 5.595-.192c24.264 0 46.259 9.847 62.18 25.735 15.888 15.921 25.734 37.884 25.734 62.18"/><path fill="#5fceff" d="M681.356 491.84v.192c-45.94 2.877-82.32 41.048-82.32 87.723v396.416H240.983V579.755c0-48.56 39.353-87.915 87.914-87.915z"/><path fill="#4f46a3" d="M508.973 221.958h-.074a22.378 22.378 0 0 1 .016-44.757h.058c28.471 0 51.646-23.145 51.668-51.617.022-28.507-23.146-51.716-51.646-51.742h-.042a51.32 51.32 0 0 0-36.502 15.115 51.34 51.34 0 0 0-15.166 36.531 22.38 22.38 0 0 1-22.378 22.362h-.016a22.38 22.38 0 0 1-22.363-22.394c.02-25.754 10.067-49.961 28.296-68.164 18.21-18.187 42.407-28.203 68.13-28.203h.076c53.18.041 96.41 43.346 96.37 96.53-.044 53.139-43.295 96.339-96.427 96.339"/><path fill="#4f46a3" d="M507.892 316.458h-.016a22.38 22.38 0 0 1-22.362-22.394l.064-94.469a22.38 22.38 0 0 1 22.378-22.362h.016a22.38 22.38 0 0 1 22.365 22.394l-.067 94.469a22.38 22.38 0 0 1-22.378 22.362"/><path fill="#4f46a3" d="M981.65 618.6a22.24 22.24 0 0 1-12.004-3.51l-32.512-20.712L507.13 320.614 46.201 614.42a22.382 22.382 0 0 1-24.053-37.746L495.095 275.21a22.38 22.38 0 0 1 24.047-.007l474.555 302.143A22.378 22.378 0 0 1 981.65 618.6"/><path fill="#4f46a3" d="M55.562 598.201h-.016a22.38 22.38 0 0 1-22.362-22.394l.064-94.5a22.38 22.38 0 0 1 22.378-22.363h.016a22.38 22.38 0 0 1 22.362 22.395l-.064 94.5a22.38 22.38 0 0 1-22.378 22.362m897.339-1.63h-.016a22.38 22.38 0 0 1-22.362-22.394l.063-94.469a22.38 22.38 0 0 1 22.379-22.365h.016a22.38 22.38 0 0 1 22.362 22.39l-.064 94.472a22.38 22.38 0 0 1-22.378 22.366m-271.545-82.352H334.492a22.378 22.378 0 1 1 0-44.757h346.864a22.378 22.378 0 1 1 0 44.757"/><path fill="#4f46a3" d="M599.036 998.553a22.38 22.38 0 0 1-22.379-22.379V579.758c0-58.087 45.374-106.43 103.302-110.06a103 103 0 0 1 6.995-.236c29.437 0 57.132 11.46 77.988 32.273 20.847 20.885 32.305 48.58 32.305 78.02v303.706a22.378 22.378 0 1 1-44.757 0V579.755a65.22 65.22 0 0 0-19.197-46.37 65.2 65.2 0 0 0-50.393-19.032c-34.542 2.164-61.483 30.885-61.483 65.399v396.416a22.385 22.385 0 0 1-22.381 22.385"/><path fill="#4f46a3" d="M599.036 998.553H244.179a22.378 22.378 0 1 1 0-44.757h354.857a22.378 22.378 0 1 1 0 44.757m175.83-92.71h-175.83a22.378 22.378 0 1 1 0-44.757h175.83a22.378 22.378 0 1 1 0 44.756"/><path fill="#4f46a3" d="M240.983 998.553a22.38 22.38 0 0 1-22.379-22.379V579.758c0-60.814 49.479-110.293 110.293-110.293a22.378 22.378 0 1 1 0 44.757c-36.137 0-65.536 29.402-65.536 65.536v396.416a22.38 22.38 0 0 1-22.378 22.379m705.46-396.416H599.036a22.378 22.378 0 1 1 0-44.757h347.407a22.378 22.378 0 1 1 0 44.757"/><path fill="#4f46a3" d="M240.983 602.137H56.553a22.378 22.378 0 1 1 0-44.757h184.43a22.378 22.378 0 1 1 0 44.757"/></svg>