<svg xmlns="http://www.w3.org/2000/svg" id="Layer_1" width="64" height="64" data-name="Layer 1" viewBox="0 0 64 64"><path d="m36 52 14 10H14l14-10m29-1H43V15l13 4zM9 51h14V15l-13 4zm16-40V1h16v10"/><path d="M31 11V7h4v4"/><path d="M23 51V11h20v40" style="fill:#8f6c56"/><path d="M30 51V41h6v10m11 0V41h6v10m-40 0V41h6v10"/><path d="M3 50h60v2H3z" style="fill:#ba9bc9"/><path d="M27 15h4v4h-4zm8 0h4v4h-4zm-8 8h4v4h-4zm8 0h4v4h-4zm-8 8h4v4h-4zm-13-8h4v4h-4zm0 8h4v4h-4zm34-8h4v4h-4zm0 8h4v4h-4zm-13 0h4v4h-4zm-6 23h6v2h-6zm-3 4h12v2H26z"/></svg>