<svg xmlns="http://www.w3.org/2000/svg" xml:space="preserve" id="Layer_1" x="0" y="0" viewBox="0 0 512.002 512.002"><path d="M135.571 484.269H15.31V88.971l60.13-61.239 60.131 61.239z" style="fill:#e4aaa9"/><path d="M255.831 484.269h-120.26V88.971L195.7 27.732l60.131 61.239z" style="fill:#e7ad7c"/><path d="M376.261 484.269H255.999V88.971l60.131-61.239 60.131 61.239z" style="fill:#e4aaa9"/><path d="M496.69 484.269H376.429V88.971l60.131-61.239 60.13 61.239z" style="fill:#f7a676"/><path d="M443.651 215.848c-.994 0-1.99-.107-2.984-.306a15.4 15.4 0 0 1-2.863-.873 15.7 15.7 0 0 1-2.649-1.408 15.3 15.3 0 0 1-2.327-1.898c-2.848-2.846-4.47-6.796-4.47-10.822 0-.995.092-2.007.289-2.985s.49-1.946.873-2.878c.383-.92.857-1.808 1.409-2.633a14.6 14.6 0 0 1 1.898-2.329 15.3 15.3 0 0 1 2.327-1.898c.842-.55 1.73-1.026 2.649-1.408a15.4 15.4 0 0 1 2.863-.871c1.975-.4 4.011-.4 5.986 0 .98.199 1.944.488 2.861.871.92.383 1.808.859 2.649 1.408a15.4 15.4 0 0 1 2.327 1.898 14.5 14.5 0 0 1 1.898 2.329 15.4 15.4 0 0 1 1.409 2.633c.383.932.674 1.898.873 2.878s.289 1.99.289 2.985-.092 2.006-.289 2.985a15.4 15.4 0 0 1-.873 2.861 15 15 0 0 1-1.409 2.649 14.6 14.6 0 0 1-1.898 2.327 15 15 0 0 1-2.327 1.898 16 16 0 0 1-2.649 1.408 15.5 15.5 0 0 1-5.862 1.179"/><path d="m507.615 78.245-60.131-61.239a15.314 15.314 0 0 0-21.85 0l-49.29 50.199-49.29-50.199a15.314 15.314 0 0 0-21.85 0l-49.291 50.199-49.291-50.199a15.31 15.31 0 0 0-21.848 0L135.571 67.12 86.364 17.006a15.31 15.31 0 0 0-21.848 0L4.386 78.245A15.3 15.3 0 0 0 0 88.971v395.298c0 8.454 6.854 15.31 15.31 15.31h240.522q.042-.001.084-.005c.029 0 .055.005.084.005h120.261c.029 0 .057-.005.084-.005s.057.005.084.005H496.69c8.454 0 15.31-6.856 15.31-15.31V88.971c0-4.013-1.574-7.864-4.385-10.726M436.56 49.584l44.82 45.646v220.13h-89.642v-99.514h5.991c8.454 0 15.31-6.856 15.31-15.31s-6.856-15.31-15.31-15.31h-5.991V95.23zM240.523 315.361h-89.642v-99.513h89.642zm30.786-99.513h89.642v99.513h-89.642zm44.822-166.264L360.95 95.23v89.997h-89.642V95.23zm-120.429 0 44.821 45.646v89.997h-89.642V95.23zm-120.262 0 44.821 45.646v89.997H30.62V95.23zM30.62 215.848h89.642v99.513h-5.992c-8.456 0-15.31 6.856-15.31 15.31s6.854 15.31 15.31 15.31h5.992V468.96H30.62zM150.881 468.96V345.981h89.642V468.96zm120.428 0V345.981h89.642V468.96zm120.43 0V345.981h89.642V468.96z"/><path d="M68.332 345.981a15.42 15.42 0 0 1-10.824-4.487 15.5 15.5 0 0 1-1.898-2.327 15 15 0 0 1-1.408-2.649 15.1 15.1 0 0 1-1.164-5.846 15.05 15.05 0 0 1 1.164-5.848c.383-.934.857-1.822 1.408-2.647a14.6 14.6 0 0 1 1.898-2.329 14.7 14.7 0 0 1 2.327-1.898 15 15 0 0 1 2.649-1.409 14.3 14.3 0 0 1 2.863-.871c1.975-.4 4.011-.4 5.986 0 .98.182 1.944.488 2.863.871s1.807.859 2.649 1.409c.827.551 1.623 1.194 2.327 1.898s1.347 1.485 1.898 2.329a15 15 0 0 1 1.409 2.647 15.1 15.1 0 0 1 1.164 5.848 15.1 15.1 0 0 1-1.164 5.846 15 15 0 0 1-1.409 2.649 15.5 15.5 0 0 1-1.898 2.327c-.704.704-1.5 1.349-2.327 1.898a16.3 16.3 0 0 1-2.649 1.409c-.919.383-1.883.689-2.863.873-.995.198-1.99.307-3.001.307"/></svg>