<svg xmlns="http://www.w3.org/2000/svg" xml:space="preserve" id="Layer_1" x="0" y="0" viewBox="0 0 497.6 497.6"><path d="M492.8 497.6c-36-80-140-54.4-244-54.4s-208-25.6-244 54.4z" style="fill:#3fcad1"/><circle cx="248.8" cy="220" r="210.4" style="fill:#ff9100"/><path d="M397.6 368.8c-82.4 82.4-215.2 82.4-297.6 0-82.4-81.6-82.4-215.2 0-296.8" style="fill:#ff7900"/><circle cx="84.8" cy="83.2" r="43.2" style="fill:#ffce00"/><path d="M84.8 40c24 0 43.2 19.2 43.2 43.2s-19.2 43.2-43.2 43.2" style="fill:#ff9d00"/><path d="M128 83.2c0 24-19.2 40-43.2 40s-43.2-16-43.2-40 19.2-40 43.2-40 43.2 16 43.2 40" style="fill:#ffbc00"/><path d="M84.8 43.2c24 0 43.2 16 43.2 40s-19.2 40-43.2 40-43.2-16-43.2-40" style="fill:#ffb000"/><path d="M84.8 43.2c24 0 43.2 16 43.2 40s-19.2 40-43.2 40" style="fill:#ffbc00"/><path d="M128 83.2c0 24-19.2 40-43.2 40" style="fill:#ffce00"/><circle cx="84.8" cy="25.6" r="3.2" style="fill:#ff9d00"/><path d="m88.8 15.2-4 .8-3.2-.8 3.2-8z" style="fill:#ffce00"/><circle cx="84.8" cy="140" r="3.2" style="fill:#ff9d00"/><path d="m81.6 151.2 3.2-1.6 4 1.6-4 7.2z" style="fill:#ffce00"/><circle cx="125.6" cy="42.4" r="3.2" style="fill:#ff9d00"/><path d="m136 37.6-4-1.6-1.6-4 8-2.4z" style="fill:#ffce00"/><circle cx="44.8" cy="123.2" r="3.2" style="fill:#ff9d00"/><path d="m34.4 128 3.2 2.4 2.4 3.2-8 2.4z" style="fill:#ffce00"/><circle cx="142.4" cy="83.2" r="3.2" style="fill:#ff9d00"/><path d="m152.8 87.2-.8-4 .8-4 8 4z" style="fill:#ffce00"/><circle cx="28" cy="83.2" r="3.2" style="fill:#ff9d00"/><path d="m16.8 79.2 1.6 4-1.6 4-7.2-4z" style="fill:#ffce00"/><circle cx="125.6" cy="123.2" r="3.2" style="fill:#ff9d00"/><path d="m130.4 133.6 1.6-3.2 4-2.4 2.4 8z" style="fill:#ffce00"/><circle cx="44.8" cy="42.4" r="3.2" style="fill:#ff9d00"/><path d="m40 32-2.4 4-3.2 1.6-2.4-8z" style="fill:#ffce00"/><circle cx="107.2" cy="30.4" r="3.2" style="fill:#ffce00"/><path d="M115.2 21.6h-4l-3.2-2.4 6.4-5.6z" style="fill:#ff9d00"/><circle cx="62.4" cy="136" r="3.2" style="fill:#ffce00"/><path d="M55.2 144h4l3.2 3.2L56 152z" style="fill:#ff9d00"/><circle cx="138.4" cy="61.6" r="3.2" style="fill:#ffce00"/><path d="m149.6 60.8-2.4-2.4-.8-4h8.8z" style="fill:#ff9d00"/><circle cx="32" cy="104.8" r="3.2" style="fill:#ffce00"/><path d="m20.8 104.8 2.4 3.2v4l-8-.8z" style="fill:#ff9d00"/><circle cx="137.6" cy="105.6" r="3.2" style="fill:#ffce00"/><path d="M146.4 112.8v-4l2.4-2.4 5.6 6.4z" style="fill:#ff9d00"/><circle cx="32" cy="60.8" r="3.2" style="fill:#ffce00"/><path d="M24 52.8v4L20.8 60 16 53.6z" style="fill:#ff9d00"/><circle cx="106.4" cy="136" r="3.2" style="fill:#ffce00"/><path d="m107.2 147.2 3.2-2.4h4l-.8 8z" style="fill:#ff9d00"/><circle cx="64" cy="29.6" r="3.2" style="fill:#ffce00"/><path d="M63.2 18.4 60 20.8l-4 .8.8-8.8z" style="fill:#ff9d00"/><path d="M443.2 497.6c-30.4-80-106.4-132-194.4-132s-164 52-194.4 132z" style="fill:#ffe000"/><path d="M443.2 497.6c-30.4-80-106.4-108.8-194.4-108.8s-164 28.8-194.4 108.8z" style="fill:#efc100"/><path d="M284.8 375.2c0 109.6-16 68-36 68s-36 40.8-36-68c0-109.6 16-197.6 36-197.6s36 88.8 36 197.6" style="fill:#bc6c15"/><path d="M224.8 0c27.2 0 48.8 37.6 48.8 82.4s-24.8 82.4-48.8 82.4V1.6" style="fill:#3cc676"/><path d="M273.6 82.4c0 44.8-24.8 82.4-48.8 82.4V49.6" style="fill:#0aa06e"/><path d="M128 64c19.2-19.2 60-8.8 92 23.2s42.4 73.6 23.2 92L129.6 65.6" style="fill:#3cc676"/><path d="M220 87.2c32 32 42.4 73.6 23.2 92l-80.8-80" style="fill:#0aa06e"/><path d="M88 186.4c0-27.2 37.6-48.8 82.4-48.8s82.4 24 82.4 48h-164" style="fill:#3cc676"/><path d="M170.4 136.8c44.8 0 83.2 24.8 83.2 48.8H136.8" style="fill:#0aa06e"/><path d="M156 320c-22.4-14.4-21.6-56.8 2.4-95.2s62.4-57.6 84.8-43.2l-86.4 136" style="fill:#3cc676"/><path d="M158.4 224.8c24-38.4 62.4-57.6 84.8-43.2l-60.8 96" style="fill:#0aa06e"/><path d="M369.6 64c-19.2-19.2-60-8.8-92 23.2s-42.4 73.6-23.2 92L368 65.6" style="fill:#3cc676"/><path d="M277.6 87.2c-32 32-42.4 73.6-23.2 92l80.8-80.8" style="fill:#0aa06e"/><path d="M409.6 186.4c0-27.2-37.6-48.8-82.4-48.8s-82.4 24-82.4 48h164" style="fill:#3cc676"/><path d="M327.2 136.8c-44.8 0-83.2 24.8-83.2 48.8h116.8" style="fill:#0aa06e"/><path d="M341.6 320c22.4-14.4 21.6-56.8-2.4-95.2s-62.4-57.6-84.8-43.2l86.4 136" style="fill:#3cc676"/><path d="M339.2 224.8c-24-38.4-62.4-57.6-84.8-43.2l60.8 96" style="fill:#0aa06e"/><path d="M248.8 177.6c20 0 36 88.8 36 197.6 0 109.6-16 68-36 68" style="fill:#965011"/><circle cx="218.4" cy="203.2" r="29.6" style="fill:#ffc114"/><path d="M240 182.4c12 12 12 30.4 0 42.4s-30.4 12-42.4 0" style="fill:#ff8a15"/><circle cx="279.2" cy="203.2" r="29.6" style="fill:#ffc114"/><path d="M300 182.4c12 12 12 30.4 0 42.4s-30.4 12-42.4 0" style="fill:#ff8a15"/><circle cx="248.8" cy="151.2" r="29.6" style="fill:#ffc114"/><path d="M248.8 121.6c16.8 0 29.6 13.6 29.6 29.6 0 16.8-13.6 29.6-29.6 29.6" style="fill:#ff8a15"/><path d="M270.4 245.6c0 1.6-1.6 4-4 4h-35.2c-2.4 0-4-2.4-4-4s1.6-4 4-4h35.2c2.4 0 4 2.4 4 4m0 24c0 1.6-1.6 4-4 4h-35.2c-2.4 0-4-2.4-4-4s1.6-4 4-4h35.2c2.4 0 4 2.4 4 4m0 24c0 1.6-1.6 4-4 4h-35.2c-2.4 0-4-2.4-4-4s1.6-4 4-4h35.2c2.4 0 4 2.4 4 4m0 24c0 1.6-1.6 4-4 4h-35.2c-2.4 0-4-2.4-4-4s1.6-4 4-4h35.2c2.4 0 4 2.4 4 4m0 24c0 1.6-1.6 4-4 4h-35.2c-2.4 0-4-2.4-4-4s1.6-4 4-4h35.2c2.4 0 4 2.4 4 4m0 24c0 1.6-1.6 4-4 4h-35.2c-2.4 0-4-2.4-4-4s1.6-4 4-4h35.2c2.4 0 4 2.4 4 4m0 24c0 1.6-1.6 4-4 4h-35.2c-2.4 0-4-2.4-4-4s1.6-4 4-4h35.2c2.4 0 4 2.4 4 4" style="fill:#d88532"/><path d="M312.8 497.6h-128l31.2-80h65.6z" style="fill:#c69705"/></svg>