<svg xmlns="http://www.w3.org/2000/svg" xml:space="preserve" id="Layer_1" x="0" y="0" viewBox="0 0 511.998 511.998"><path d="M330.586 503.728H181.41l-38.395-157.225h225.966z" style="fill:#734f42"/><path d="M255.998 307.524s-39.19-33.449-102.617-66.29C89.956 208.392 80.5 117.523 80.5 117.523s39.189 33.449 102.614 66.291c63.427 32.84 72.884 123.71 72.884 123.71" style="fill:#6cc04a"/><path d="M255.998 307.524s39.189-33.449 102.615-66.29c63.427-32.843 72.883-123.711 72.883-123.711s-39.191 33.449-102.614 66.291c-63.426 32.84-72.884 123.71-72.884 123.71" style="fill:#6cc04a"/><path d="M255.998 226.771s-32.526-39.96-89.003-83.685C110.52 99.361 117.581 8.271 117.581 8.271s32.526 39.96 89 83.686c56.477 43.726 49.417 134.814 49.417 134.814" style="fill:#4e9d2d"/><path d="M255.998 226.771s32.525-39.96 89.001-83.685S394.415 8.271 394.415 8.271s-32.526 39.96-89 83.686c-56.478 43.726-49.417 134.814-49.417 134.814" style="fill:#4e9d2d"/><path d="M386.057 342.663c0 3.677-3.009 6.685-6.686 6.685H132.623c-3.677 0-6.686-3.009-6.686-6.685v-18.482c0-3.677 3.009-6.685 6.686-6.685h246.748c3.677 0 6.686 3.008 6.686 6.685z" style="fill:#b28978"/><path d="M435.347 110.202a8.27 8.27 0 0 0-9.218 1.026c-.386.329-39.316 33.272-101.049 65.239-25.847 13.383-46.853 37.858-61.092 71.044v-17.39c7.101-8.325 37.906-43.199 86.077-80.494 24.718-19.138 41.646-49.852 48.951-88.821 5.433-28.979 3.721-52.199 3.646-53.173A8.272 8.272 0 0 0 388 3.05c-.32.393-32.564 39.716-87.65 82.367-15.218 11.782-27.476 27.957-36.362 47.739V67.869h-16.543v64.047c-8.837-19.218-20.9-34.965-35.798-46.499-54.97-42.561-87.331-81.976-87.649-82.368a8.27 8.27 0 0 0-14.662 4.583c-.075.974-1.788 24.195 3.646 53.173 7.305 38.968 24.234 69.682 48.951 88.822 47.026 36.408 77.483 70.49 85.513 79.835v16.749c-14.226-32.525-35.019-56.537-60.526-69.745-61.736-31.967-100.664-64.909-101.048-65.237a8.273 8.273 0 0 0-13.597 7.148c.1.972 2.598 24.121 13.161 51.647 14.203 37.016 36.384 64.179 64.145 78.554 48.163 24.937 82.442 50.468 95.371 60.645H132.623c-8.247 0-14.957 6.709-14.957 14.956v18.482c0 8.247 6.71 14.956 14.957 14.956h4.591l36.159 148.07a8.27 8.27 0 0 0 8.036 6.31h149.176a8.27 8.27 0 0 0 8.036-6.31l36.159-148.068h4.592c8.247 0 14.957-6.709 14.957-14.956V324.18c0-8.247-6.71-14.956-14.957-14.956H267.046c12.93-10.178 47.208-35.708 95.371-60.645 27.762-14.375 49.942-41.539 64.146-78.554 10.562-27.527 13.06-50.675 13.162-51.647a8.27 8.27 0 0 0-4.378-8.176m-124.87-11.705c34.935-27.048 60.66-52.47 75.547-68.352-1.655 28.405-9.941 78.413-46.089 106.402-34.956 27.064-60.693 52.501-75.576 68.381 1.623-28.378 9.87-78.367 46.118-106.431M157.186 233.888c-40.598-21.022-57.754-68.722-64.495-96.361 17.504 12.941 47.386 33.315 86.62 53.631 40.598 21.022 57.754 68.718 64.497 96.36-17.505-12.941-47.387-33.314-86.622-53.63m14.873-97.341c-36.151-27.991-44.435-78-46.089-106.402 14.888 15.882 40.614 41.304 75.547 68.352 35.087 27.166 43.923 75.072 45.926 103.837v2.387c-14.912-15.892-40.574-41.224-75.384-68.174m152.032 358.91H187.904l-33.659-137.836H357.75zm53.694-169.689v15.309H134.21v-15.309zm-22.975-91.88c-39.259 20.327-69.154 40.713-86.654 53.654 6.706-27.621 23.82-75.306 64.529-96.384 39.234-20.316 69.117-40.69 86.62-53.631-6.741 27.643-23.897 75.339-64.495 96.361" style="fill:#1e252b"/></svg>