<svg xmlns="http://www.w3.org/2000/svg" xml:space="preserve" id="Layer_1" x="0" y="0" viewBox="0 0 512 512"><path d="M8.947 309.628a14.02 14.02 0 0 1 15.355-7.787c32.473 6.296 66.997 22.41 102.611 47.894 27.931 19.986 56.691 45.812 85.481 76.76l.679.734h-97.325a1162 1162 0 0 0-27.1-29.061c-42.577-44.109-75.611-71.47-75.938-71.74a14.026 14.026 0 0 1-3.763-16.8" style="fill:#47821c"/><path d="M31.411 205.472a14.02 14.02 0 0 1 16.639-4.422c30.453 12.915 60.868 35.86 90.401 68.196 23.161 25.36 45.918 56.605 67.639 92.866 14.166 23.65 25.974 46.197 35.193 65.117H155.36c-21.473-46.557-45.252-87.88-64.414-118.572-32.467-52.003-59.085-85.638-59.349-85.97a14.024 14.024 0 0 1-.186-17.215" style="fill:#4e901e"/><path d="M85.789 126.161a14.02 14.02 0 0 1 17.165-1.328c27.602 18.23 53.345 46.314 76.517 83.476 18.172 29.144 34.878 64.001 49.654 103.603 18.858 50.543 29.609 95.304 33.953 115.317h-82.56c-12.849-73.029-36.419-141.872-54.917-188.788-22.486-57.034-42.555-94.943-42.754-95.317a14.02 14.02 0 0 1 2.942-16.963" style="fill:#5eac24"/><path d="M206.209 427.145q.003-.745.081-1.469c4.802-82.815-5.741-166.033-15.448-221.327-10.59-60.328-22.511-101.427-22.63-101.834-1.796-6.141.687-12.754 6.031-16.06 5.345-3.307 12.185-2.463 16.616 2.051 22.845 23.271 42.045 55.845 57.066 96.816 11.781 32.133 21.078 69.582 27.631 111.308 10.976 69.873 10.541 127.261 10.5 130.88z" style="fill:#6dc82a"/><path d="M503.053 309.628a14.02 14.02 0 0 0-15.355-7.787c-32.473 6.296-66.997 22.41-102.611 47.894-27.931 19.986-56.691 45.812-85.481 76.76l-.679.734h97.325a1162 1162 0 0 1 27.1-29.061c42.577-44.109 75.611-71.47 75.938-71.74a14.03 14.03 0 0 0 3.763-16.8" style="fill:#4e901e"/><path d="M480.589 205.472a14.02 14.02 0 0 0-16.639-4.422c-30.453 12.915-60.868 35.86-90.401 68.196-23.161 25.36-45.918 56.605-67.639 92.866-14.166 23.65-25.974 46.197-35.193 65.117h85.922c21.473-46.557 45.252-87.88 64.414-118.572 32.467-52.003 59.085-85.638 59.349-85.97a14.02 14.02 0 0 0 .187-17.215" style="fill:#5eac24"/><path d="M426.212 126.161a14.02 14.02 0 0 0-17.165-1.328c-27.602 18.23-53.346 46.314-76.517 83.476-18.172 29.144-34.878 64.001-49.654 103.603-18.858 50.543-29.609 95.304-33.953 115.317h82.56c12.849-73.029 36.419-141.872 54.917-188.788 22.486-57.034 42.555-94.943 42.754-95.317a14.024 14.024 0 0 0-2.942-16.963" style="fill:#6dc82a"/><path d="M307.304 427.228q0-.745-.076-1.469c-4.549-82.835 6.689-166.005 16.935-221.255 11.179-60.279 23.637-101.323 23.76-101.728a14.024 14.024 0 0 0-23.232-14.113c-23.611 23.166-43.517 55.651-59.163 96.555-12.272 32.078-22.012 69.485-28.95 111.18-11.621 69.823-11.443 127.211-11.42 130.831h82.145v-.001z" style="fill:#91dc5a"/><path d="M279.06 282.59q-.595.001-1.202-.095a7.6 7.6 0 0 1-6.316-8.703c3.62-22.796 6.991-36.936 7.133-37.527a7.605 7.605 0 0 1 14.788 3.546c-.032.14-3.383 14.21-6.902 36.367a7.61 7.61 0 0 1-7.501 6.412m-8.344 114.453a7.604 7.604 0 0 1-7.599-7.428c-.594-25.769.707-53.348 3.868-81.97.461-4.172 4.22-7.174 8.393-6.724a7.606 7.606 0 0 1 6.724 8.393c-3.088 27.954-4.361 54.853-3.781 79.95a7.604 7.604 0 0 1-7.426 7.777z" style="fill:#5eac24"/><path d="M28.899 419.625h-13.18c-4.199 0-7.604 3.403-7.604 7.604s3.404 7.604 7.604 7.604h13.18c4.199 0 7.604-3.403 7.604-7.604s-3.405-7.604-7.604-7.604m466.716 0h-29.749c-4.2 0-7.604 3.403-7.604 7.604s3.403 7.604 7.604 7.604h29.749c4.2 0 7.604-3.403 7.604-7.604s-3.404-7.604-7.604-7.604m14.316-113.238a21.605 21.605 0 0 0-23.679-12.012c-19.742 3.827-40.243 11.165-61.203 21.886 29.326-47.098 55.604-81.421 56.079-82.037 3.334-4.412 5.212-6.784 5.229-6.806a21.614 21.614 0 0 0 .285-26.55 21.6 21.6 0 0 0-25.659-6.82c-22.152 9.394-44.233 23.893-65.929 43.208 21.605-54.219 40.623-90.199 40.814-90.561a21.61 21.61 0 0 0-4.538-26.16 21.614 21.614 0 0 0-26.474-2.049c-25.234 16.666-48.887 41.186-70.451 72.996 10.247-51.647 20.677-86.116 20.789-86.482 2.897-9.467-.796-20.003-9.451-24.811-10.831-6.015-22.17-.801-26.377 3.046-35.738 32.675-62.113 102.385-62.693 103.958-.533-1.506-29.82-74.576-60.387-104.014-7.136-6.873-17.65-8.386-26.043-3.191-8.247 5.102-12.083 15.242-9.329 24.66.114.388 11.008 37.994 21.163 93.876-22.758-35.114-47.942-61.93-74.932-79.755a21.606 21.606 0 0 0-26.473 2.049c-7.324 6.662-9.191 17.42-4.513 26.209.39.72 20.136 37.483 41.821 91.405-22.027-19.774-44.459-34.558-66.96-44.101a21.61 21.61 0 0 0-25.661 6.821 21.61 21.61 0 0 0 .286 26.549c.263.331 36.711 47.169 60.716 88.277-20.753-10.556-41.057-17.809-60.611-21.6-9.721-1.895-19.459 3.053-23.68 12.01a21.61 21.61 0 0 0 5.798 25.904c.327.271 33.234 27.568 75.31 71.16a1144 1144 0 0 1 15.301 16.176H54.92c-4.199 0-7.604 3.403-7.604 7.604s3.404 7.604 7.604 7.604h60.83s8.184.279 7.774-7.322c-.338-6.263-20.121-25.003-29.405-34.624-42.731-44.277-76.233-72.047-76.572-72.326a6.42 6.42 0 0 1-1.723-7.691 6.41 6.41 0 0 1 7.029-3.565c25.196 4.885 51.918 16.031 79.433 33.114 17.256 29.558 32.729 59.138 46.167 88.276a7.6 7.6 0 0 0 6.905 4.418h23.082a7.606 7.606 0 0 0 7.544-8.557C168.269 286.38 90.317 141.232 89.558 139.832a6.415 6.415 0 0 1 1.348-7.765c2.175-1.978 5.431-2.266 7.857-.609 47.742 32.61 76.806 78.571 90.097 108.554 7.565 52.066 13.677 118.721 9.848 185.061-.066.678-.625 9.438 7.466 9.673l125.31.084c3.691 0 6.85-2.65 7.489-6.286 10.3-58.539 27.605-114.371 43.199-157.418 27.835-29.805 56.342-51.033 84.748-63.079a6.41 6.41 0 0 1 7.615 2.024 6.416 6.416 0 0 1-.082 7.88c-.019.022-84.287 107.149-123.112 206.446-.92 2.351-.655 4.999.759 7.09a7.6 7.6 0 0 0 6.298 3.344h80.431c4.2 0 7.604-3.403 7.604-7.604 0-4.2-3.403-7.604-7.604-7.604H413.52a1158 1158 0 0 1 15.301-16.176c41.953-43.463 74.985-70.891 75.304-71.155a21.605 21.605 0 0 0 5.806-25.905m-379.382-34.215q.257.278.534.522c16.065 44.315 31.286 95.915 38.658 147.213h-9.529c-17.756-37.985-38.875-76.649-62.816-114.995-32.828-52.581-59.582-86.342-59.846-86.675a6.416 6.416 0 0 1-.085-7.881 6.414 6.414 0 0 1 7.617-2.025c28.649 12.152 57.405 33.63 85.467 63.841m67.783-69.138c-10.7-60.956-22.702-102.245-22.821-102.653-.841-2.876.283-5.944 2.733-7.46 2.306-1.423 5.262-1.052 7.189.911 22.084 22.495 40.707 54.158 55.353 94.106 2.716 7.408 5.328 15.218 7.78 23.219-26.53 84.204-30.659 190.003-30.955 208.434l-3.382-.015c3.944-81.386-6.384-162.348-15.897-216.542m34.487 216.591c.293-18.075 1.973-66.181 11.26-121.979 6.857-41.197 16.463-78.11 28.552-109.712 15.253-39.875 34.561-71.448 57.388-93.844 1.208-1.185 4.219-2.85 7.829-.904 2.587 1.394 3.665 4.554 2.804 7.372-.127.415-12.751 42.1-23.963 102.56-10.043 54.155-21.051 135.086-17.379 216.507zm92.31 0h-10.591c-3.129-67.788 4.153-135.419 12.477-187.051.214-.284 41.773-78.389 86.219-101.396 2.613-1.352 5.685-1.371 7.859.608s2.727 5.171 1.345 7.767c-.199.381-65.053 105.624-97.309 280.072m169.313-99.056c-1.37 1.132-34.023 28.247-76.564 72.319a1166 1166 0 0 0-25.005 26.738h-23.087c11.203-26.132 25.104-52.479 39.25-76.79v-.001c27.754-17.323 54.706-28.604 80.111-33.529a6.42 6.42 0 0 1 5.295 11.263"/></svg>