<svg xmlns="http://www.w3.org/2000/svg" xml:space="preserve" id="Layer_1" x="0" y="0" viewBox="0 0 512.004 512.004"><path d="M370.114 157.811C351.523 65.174 307.456 0 256 0c-51.447 0-95.514 65.174-114.114 157.811 41.057 46.036 72.854 122.827 92.328 199.477C251.065 406.528 256 461.356 256 512c0-50.644 4.935-105.472 21.786-154.712 19.483-76.65 51.271-153.441 92.328-199.477" style="fill:#f0ede0"/><path d="M256.002 512.004c0-138.664-77.241-397.241-194.207-397.241-81.761 236.905 34.578 397.241 194.207 397.241" style="fill:#af6d2d"/><path d="M185.347 471.952a8.9 8.9 0 0 1-3.363-.671c-31.603-13.065-58.033-34.278-78.539-63.047-41.393-58.068-52.515-141.047-31.329-233.657 1.086-4.758 5.826-7.733 10.575-6.63 4.749 1.086 7.724 5.817 6.638 10.567-20.047 87.623-9.931 165.57 28.495 219.471 18.556 26.033 42.408 45.197 70.894 56.973 4.511 1.863 6.656 7.027 4.793 11.529a8.83 8.83 0 0 1-8.164 5.465" style="fill:#864d18"/><path d="M256.002 512.004c0-138.664 77.241-397.241 194.207-397.241 81.761 236.905-34.578 397.241-194.207 397.241" style="fill:#af6d2d"/><path d="M184.403 141.249c-.83 0-1.66-.124-2.498-.362-4.67-1.377-7.353-6.285-5.976-10.964 11.714-39.812 28.637-71.318 47.634-88.691 3.593-3.302 9.181-3.046 12.473.556 3.293 3.593 3.037 9.181-.556 12.473-16.419 15.007-31.947 44.403-42.611 80.649-1.13 3.841-4.653 6.339-8.466 6.339" style="fill:#b49377"/></svg>